<svg width="500" height="300" viewBox="0 0 500 300" fill="none" xmlns="http://www.w3.org/2000/svg">
<g id="01-A-light">
<rect width="500" height="300" rx="30" fill="white"/>
<g id="Field">
<g id="Label + Icon">
<g id="Label">
<path id="Text" d="M34.3711 139H29.2852V129.197H30.4336V137.961H34.3711V139ZM40.7354 139H39.6143V137.906H39.5869C39.0993 138.745 38.3815 139.164 37.4336 139.164C36.7363 139.164 36.1895 138.979 35.793 138.61C35.401 138.241 35.2051 137.751 35.2051 137.141C35.2051 135.833 35.9753 135.072 37.5156 134.857L39.6143 134.563C39.6143 133.374 39.1335 132.779 38.1719 132.779C37.3288 132.779 36.5677 133.066 35.8887 133.641V132.492C36.5768 132.055 37.3698 131.836 38.2676 131.836C39.9128 131.836 40.7354 132.706 40.7354 134.447V139ZM39.6143 135.459L37.9258 135.691C37.4062 135.764 37.0143 135.894 36.75 136.081C36.4857 136.263 36.3535 136.589 36.3535 137.059C36.3535 137.4 36.4743 137.681 36.7158 137.899C36.9619 138.114 37.2878 138.221 37.6934 138.221C38.2493 138.221 38.7074 138.027 39.0674 137.64C39.432 137.248 39.6143 136.753 39.6143 136.156V135.459ZM43.9961 137.988H43.9688V139H42.8477V128.637H43.9688V133.23H43.9961C44.5475 132.301 45.3542 131.836 46.416 131.836C47.3138 131.836 48.0156 132.15 48.5215 132.779C49.0319 133.404 49.2871 134.242 49.2871 135.295C49.2871 136.466 49.0023 137.405 48.4326 138.111C47.863 138.813 47.0837 139.164 46.0947 139.164C45.1696 139.164 44.4701 138.772 43.9961 137.988ZM43.9688 135.165V136.143C43.9688 136.721 44.1556 137.214 44.5293 137.619C44.9076 138.02 45.3861 138.221 45.9648 138.221C46.6439 138.221 47.1748 137.961 47.5576 137.441C47.945 136.922 48.1387 136.2 48.1387 135.274C48.1387 134.495 47.9587 133.884 47.5986 133.442C47.2386 133 46.751 132.779 46.1357 132.779C45.484 132.779 44.96 133.007 44.5635 133.463C44.167 133.914 43.9688 134.481 43.9688 135.165ZM56.7041 135.78H51.7617C51.7799 136.56 51.9896 137.161 52.3906 137.585C52.7917 138.009 53.3431 138.221 54.0449 138.221C54.8333 138.221 55.5579 137.961 56.2188 137.441V138.494C55.6035 138.941 54.79 139.164 53.7783 139.164C52.7894 139.164 52.0124 138.847 51.4473 138.214C50.8822 137.576 50.5996 136.68 50.5996 135.527C50.5996 134.438 50.9072 133.552 51.5225 132.868C52.1423 132.18 52.9102 131.836 53.8262 131.836C54.7422 131.836 55.4508 132.132 55.9521 132.725C56.4535 133.317 56.7041 134.14 56.7041 135.192V135.78ZM55.5557 134.83C55.5511 134.183 55.3939 133.679 55.084 133.319C54.7786 132.959 54.3525 132.779 53.8057 132.779C53.277 132.779 52.8281 132.968 52.459 133.347C52.0898 133.725 51.862 134.219 51.7754 134.83H55.5557ZM59.5273 139H58.4062V128.637H59.5273V139Z" fill="#242424"/>
</g>
</g>
<g id="Form + Text">
<g id="Input">
<g clip-path="url(#clip0_383_18972)">
<g id="Contents">
<rect x="28.5" y="147.5" width="443" height="31" rx="3.5" fill="white"/>
<rect x="28.5" y="147.5" width="443" height="31" rx="3.5" stroke="#616161"/>
</g>
<path id="Thin underline" d="M28 178H472V179H28V178Z" fill="#616161"/>
</g>
</g>
</g>
</g>
</g>
<defs>
<clipPath id="clip0_383_18972">
<path d="M28 151C28 148.791 29.7909 147 32 147H468C470.209 147 472 148.791 472 151V175C472 177.209 470.209 179 468 179H32C29.7909 179 28 177.209 28 175V151Z" fill="white"/>
</clipPath>
</defs>
</svg>
