<svg width="500" height="300" viewBox="0 0 500 300" fill="none" xmlns="http://www.w3.org/2000/svg">
<g id="05-E-dark">
<rect x="0.5" y="0.5" width="499" height="299" rx="29.5" fill="#292929"/>
<rect x="0.5" y="0.5" width="499" height="299" rx="29.5" />
<g id="Field">
<g id="Label + Icon">
<g id="Label">
<path id="Text" d="M34.3711 139H29.2852V129.197H30.4336V137.961H34.3711V139ZM40.7354 139H39.6143V137.906H39.5869C39.0993 138.745 38.3815 139.164 37.4336 139.164C36.7363 139.164 36.1895 138.979 35.793 138.61C35.401 138.241 35.2051 137.751 35.2051 137.141C35.2051 135.833 35.9753 135.072 37.5156 134.857L39.6143 134.563C39.6143 133.374 39.1335 132.779 38.1719 132.779C37.3288 132.779 36.5677 133.066 35.8887 133.641V132.492C36.5768 132.055 37.3698 131.836 38.2676 131.836C39.9128 131.836 40.7354 132.706 40.7354 134.447V139ZM39.6143 135.459L37.9258 135.691C37.4062 135.764 37.0143 135.894 36.75 136.081C36.4857 136.263 36.3535 136.589 36.3535 137.059C36.3535 137.4 36.4743 137.681 36.7158 137.899C36.9619 138.114 37.2878 138.221 37.6934 138.221C38.2493 138.221 38.7074 138.027 39.0674 137.64C39.432 137.248 39.6143 136.753 39.6143 136.156V135.459ZM43.9961 137.988H43.9688V139H42.8477V128.637H43.9688V133.23H43.9961C44.5475 132.301 45.3542 131.836 46.416 131.836C47.3138 131.836 48.0156 132.15 48.5215 132.779C49.0319 133.404 49.2871 134.242 49.2871 135.295C49.2871 136.466 49.0023 137.405 48.4326 138.111C47.863 138.813 47.0837 139.164 46.0947 139.164C45.1696 139.164 44.4701 138.772 43.9961 137.988ZM43.9688 135.165V136.143C43.9688 136.721 44.1556 137.214 44.5293 137.619C44.9076 138.02 45.3861 138.221 45.9648 138.221C46.6439 138.221 47.1748 137.961 47.5576 137.441C47.945 136.922 48.1387 136.2 48.1387 135.274C48.1387 134.495 47.9587 133.884 47.5986 133.442C47.2386 133 46.751 132.779 46.1357 132.779C45.484 132.779 44.96 133.007 44.5635 133.463C44.167 133.914 43.9688 134.481 43.9688 135.165ZM56.7041 135.78H51.7617C51.7799 136.56 51.9896 137.161 52.3906 137.585C52.7917 138.009 53.3431 138.221 54.0449 138.221C54.8333 138.221 55.5579 137.961 56.2188 137.441V138.494C55.6035 138.941 54.79 139.164 53.7783 139.164C52.7894 139.164 52.0124 138.847 51.4473 138.214C50.8822 137.576 50.5996 136.68 50.5996 135.527C50.5996 134.438 50.9072 133.552 51.5225 132.868C52.1423 132.18 52.9102 131.836 53.8262 131.836C54.7422 131.836 55.4508 132.132 55.9521 132.725C56.4535 133.317 56.7041 134.14 56.7041 135.192V135.78ZM55.5557 134.83C55.5511 134.183 55.3939 133.679 55.084 133.319C54.7786 132.959 54.3525 132.779 53.8057 132.779C53.277 132.779 52.8281 132.968 52.459 133.347C52.0898 133.725 51.862 134.219 51.7754 134.83H55.5557ZM59.5273 139H58.4062V128.637H59.5273V139Z" fill="white"/>
</g>
</g>
<g id="Form + Text">
<g id="Input">
<g clip-path="url(#clip0_383_19062)">
<g id="Contents">
<rect x="28.5" y="147.5" width="443" height="31" rx="3.5" stroke="#424242"/>
<g id="Icon-Text-stack">
<g id="Text_2">
<path id="Placeholder text" d="M42.4336 164.295V168H41.2852V158.197H43.9785C45.0267 158.197 45.8379 158.452 46.4121 158.963C46.9909 159.473 47.2803 160.193 47.2803 161.123C47.2803 162.053 46.959 162.814 46.3164 163.406C45.6784 163.999 44.8148 164.295 43.7256 164.295H42.4336ZM42.4336 159.236V163.256H43.6367C44.4297 163.256 45.0335 163.076 45.4482 162.716C45.8675 162.351 46.0771 161.839 46.0771 161.178C46.0771 159.883 45.3115 159.236 43.7803 159.236H42.4336ZM50.1035 168H48.9824V157.637H50.1035V168ZM57.3838 168H56.2627V166.906H56.2354C55.7477 167.745 55.0299 168.164 54.082 168.164C53.3848 168.164 52.8379 167.979 52.4414 167.61C52.0495 167.241 51.8535 166.751 51.8535 166.141C51.8535 164.833 52.6237 164.072 54.1641 163.857L56.2627 163.563C56.2627 162.374 55.7819 161.779 54.8203 161.779C53.9772 161.779 53.2161 162.066 52.5371 162.641V161.492C53.2253 161.055 54.0182 160.836 54.916 160.836C56.5612 160.836 57.3838 161.706 57.3838 163.447V168ZM56.2627 164.459L54.5742 164.691C54.0547 164.764 53.6628 164.894 53.3984 165.081C53.1341 165.263 53.002 165.589 53.002 166.059C53.002 166.4 53.1227 166.681 53.3643 166.899C53.6104 167.114 53.9362 167.221 54.3418 167.221C54.8978 167.221 55.3558 167.027 55.7158 166.64C56.0804 166.248 56.2627 165.753 56.2627 165.156V164.459ZM64.2676 167.679C63.7298 168.002 63.0918 168.164 62.3535 168.164C61.3555 168.164 60.5488 167.84 59.9336 167.193C59.3229 166.542 59.0176 165.699 59.0176 164.664C59.0176 163.511 59.348 162.586 60.0088 161.889C60.6696 161.187 61.5514 160.836 62.6543 160.836C63.2695 160.836 63.8118 160.95 64.2812 161.178V162.326C63.7617 161.962 63.2057 161.779 62.6133 161.779C61.8978 161.779 61.3099 162.037 60.8496 162.552C60.3939 163.062 60.166 163.734 60.166 164.568C60.166 165.389 60.3802 166.036 60.8086 166.51C61.2415 166.984 61.8203 167.221 62.5449 167.221C63.1556 167.221 63.7298 167.018 64.2676 166.612V167.679ZM71.5889 164.78H66.6465C66.6647 165.56 66.8743 166.161 67.2754 166.585C67.6764 167.009 68.2279 167.221 68.9297 167.221C69.7181 167.221 70.4427 166.961 71.1035 166.441V167.494C70.4883 167.941 69.6748 168.164 68.6631 168.164C67.6742 168.164 66.8971 167.847 66.332 167.214C65.7669 166.576 65.4844 165.68 65.4844 164.527C65.4844 163.438 65.792 162.552 66.4072 161.868C67.027 161.18 67.7949 160.836 68.7109 160.836C69.627 160.836 70.3356 161.132 70.8369 161.725C71.3382 162.317 71.5889 163.14 71.5889 164.192V164.78ZM70.4404 163.83C70.4359 163.183 70.2786 162.679 69.9688 162.319C69.6634 161.959 69.2373 161.779 68.6904 161.779C68.1618 161.779 67.7129 161.968 67.3438 162.347C66.9746 162.725 66.7467 163.219 66.6602 163.83H70.4404ZM79.1016 168H77.9805V163.967C77.9805 162.508 77.4382 161.779 76.3535 161.779C75.8066 161.779 75.3464 161.991 74.9727 162.415C74.599 162.834 74.4121 163.374 74.4121 164.035V168H73.291V157.637H74.4121V162.162H74.4395C74.9772 161.278 75.7428 160.836 76.7363 160.836C78.3132 160.836 79.1016 161.786 79.1016 163.687V168ZM84.1465 168.164C83.112 168.164 82.2848 167.838 81.665 167.187C81.0498 166.53 80.7422 165.662 80.7422 164.582C80.7422 163.406 81.0635 162.488 81.7061 161.827C82.3486 161.166 83.2168 160.836 84.3105 160.836C85.3542 160.836 86.1676 161.157 86.751 161.8C87.3389 162.442 87.6328 163.333 87.6328 164.473C87.6328 165.589 87.3161 166.485 86.6826 167.159C86.0537 167.829 85.2083 168.164 84.1465 168.164ZM84.2285 161.779C83.5085 161.779 82.9388 162.025 82.5195 162.518C82.1003 163.005 81.8906 163.68 81.8906 164.541C81.8906 165.37 82.1025 166.024 82.5264 166.503C82.9502 166.981 83.5176 167.221 84.2285 167.221C84.9531 167.221 85.5091 166.986 85.8965 166.517C86.2884 166.047 86.4844 165.38 86.4844 164.514C86.4844 163.639 86.2884 162.964 85.8965 162.49C85.5091 162.016 84.9531 161.779 84.2285 161.779ZM90.5449 168H89.4238V157.637H90.5449V168ZM98.7891 168H97.668V166.811H97.6406C97.1211 167.713 96.319 168.164 95.2344 168.164C94.3548 168.164 93.6507 167.852 93.1221 167.228C92.598 166.599 92.3359 165.744 92.3359 164.664C92.3359 163.507 92.6276 162.579 93.2109 161.882C93.7943 161.185 94.5713 160.836 95.542 160.836C96.5036 160.836 97.2031 161.214 97.6406 161.971H97.668V157.637H98.7891V168ZM97.668 164.835V163.803C97.668 163.238 97.4811 162.759 97.1074 162.367C96.7337 161.975 96.2598 161.779 95.6855 161.779C95.002 161.779 94.4642 162.03 94.0723 162.531C93.6803 163.033 93.4844 163.725 93.4844 164.609C93.4844 165.416 93.6712 166.054 94.0449 166.523C94.4232 166.988 94.929 167.221 95.5625 167.221C96.1868 167.221 96.6927 166.995 97.0801 166.544C97.472 166.093 97.668 165.523 97.668 164.835ZM106.685 164.78H101.742C101.76 165.56 101.97 166.161 102.371 166.585C102.772 167.009 103.324 167.221 104.025 167.221C104.814 167.221 105.538 166.961 106.199 166.441V167.494C105.584 167.941 104.771 168.164 103.759 168.164C102.77 168.164 101.993 167.847 101.428 167.214C100.863 166.576 100.58 165.68 100.58 164.527C100.58 163.438 100.888 162.552 101.503 161.868C102.123 161.18 102.891 160.836 103.807 160.836C104.723 160.836 105.431 161.132 105.933 161.725C106.434 162.317 106.685 163.14 106.685 164.192V164.78ZM105.536 163.83C105.532 163.183 105.374 162.679 105.064 162.319C104.759 161.959 104.333 161.779 103.786 161.779C103.257 161.779 102.809 161.968 102.439 162.347C102.07 162.725 101.842 163.219 101.756 163.83H105.536ZM112.037 162.135C111.841 161.984 111.559 161.909 111.189 161.909C110.711 161.909 110.31 162.135 109.986 162.586C109.667 163.037 109.508 163.652 109.508 164.432V168H108.387V161H109.508V162.442H109.535C109.695 161.95 109.938 161.567 110.267 161.294C110.595 161.016 110.962 160.877 111.367 160.877C111.659 160.877 111.882 160.909 112.037 160.973V162.135ZM120.343 167.932C120.078 168.077 119.73 168.15 119.297 168.15C118.071 168.15 117.458 167.467 117.458 166.1V161.957H116.255V161H117.458V159.291L118.579 158.929V161H120.343V161.957H118.579V165.901C118.579 166.371 118.659 166.706 118.818 166.906C118.978 167.107 119.242 167.207 119.611 167.207C119.894 167.207 120.138 167.13 120.343 166.975V167.932ZM127.466 164.78H122.523C122.542 165.56 122.751 166.161 123.152 166.585C123.553 167.009 124.105 167.221 124.807 167.221C125.595 167.221 126.32 166.961 126.98 166.441V167.494C126.365 167.941 125.552 168.164 124.54 168.164C123.551 168.164 122.774 167.847 122.209 167.214C121.644 166.576 121.361 165.68 121.361 164.527C121.361 163.438 121.669 162.552 122.284 161.868C122.904 161.18 123.672 160.836 124.588 160.836C125.504 160.836 126.213 161.132 126.714 161.725C127.215 162.317 127.466 163.14 127.466 164.192V164.78ZM126.317 163.83C126.313 163.183 126.156 162.679 125.846 162.319C125.54 161.959 125.114 161.779 124.567 161.779C124.039 161.779 123.59 161.968 123.221 162.347C122.852 162.725 122.624 163.219 122.537 163.83H126.317ZM134.281 161L131.93 164.541L134.24 168H132.935L131.561 165.73C131.474 165.589 131.371 165.411 131.253 165.197H131.226C131.203 165.238 131.096 165.416 130.904 165.73L129.503 168H128.211L130.597 164.568L128.313 161H129.619L130.973 163.393C131.073 163.57 131.171 163.753 131.267 163.939H131.294L133.044 161H134.281ZM138.841 167.932C138.576 168.077 138.228 168.15 137.795 168.15C136.569 168.15 135.956 167.467 135.956 166.1V161.957H134.753V161H135.956V159.291L137.077 158.929V161H138.841V161.957H137.077V165.901C137.077 166.371 137.157 166.706 137.316 166.906C137.476 167.107 137.74 167.207 138.109 167.207C138.392 167.207 138.636 167.13 138.841 166.975V167.932Z" fill="#5C5C5C"/>
</g>
</g>
</g>
</g>
</g>
</g>
</g>
</g>
<defs>
<clipPath id="clip0_383_19062">
<path d="M28 151C28 148.791 29.7909 147 32 147H468C470.209 147 472 148.791 472 151V175C472 177.209 470.209 179 468 179H32C29.7909 179 28 177.209 28 175V151Z" fill="white"/>
</clipPath>
</defs>
</svg>
