<svg width="500" height="300" viewBox="0 0 500 300" fill="none" xmlns="http://www.w3.org/2000/svg">
<g id="02-A-dark">
<rect width="500" height="300" rx="30" fill="#292929"/>
<g id="Field-horz">
<g id="Form + Text">
<g id="Input">
<g clip-path="url(#clip0_287_168184)">
<g id="Contents">
<rect x="28.5" y="134.5" width="443" height="31" rx="3.5" fill="#292929"/>
<rect x="28.5" y="134.5" width="443" height="31" rx="3.5" stroke="#666666"/>
<g id="Icon-Text-stack">
<g id="Icon start medium">
<path id="Shape" d="M45 151C45.5523 151 46 150.552 46 150C46 149.448 45.5523 149 45 149C44.4477 149 44 149.448 44 150C44 150.552 44.4477 151 45 151ZM46 153C46 153.552 45.5523 154 45 154C44.4477 154 44 153.552 44 153C44 152.448 44.4477 152 45 152C45.5523 152 46 152.448 46 153ZM48 151C48.5523 151 49 150.552 49 150C49 149.448 48.5523 149 48 149C47.4477 149 47 149.448 47 150C47 150.552 47.4477 151 48 151ZM49 153C49 153.552 48.5523 154 48 154C47.4477 154 47 153.552 47 153C47 152.448 47.4477 152 48 152C48.5523 152 49 152.448 49 153ZM51 151C51.5523 151 52 150.552 52 150C52 149.448 51.5523 149 51 149C50.4477 149 50 149.448 50 150C50 150.552 50.4477 151 51 151ZM55 145.5C55 144.119 53.8807 143 52.5 143H43.5C42.1193 143 41 144.119 41 145.5V154.5C41 155.881 42.1193 157 43.5 157H52.5C53.8807 157 55 155.881 55 154.5V145.5ZM42 147H54V154.5C54 155.328 53.3284 156 52.5 156H43.5C42.6716 156 42 155.328 42 154.5V147ZM43.5 144H52.5C53.3284 144 54 144.672 54 145.5V146H42V145.5C42 144.672 42.6716 144 43.5 144Z" fill="#ADADAD"/>
</g>
</g>
</g>
<path id="Thin underline" d="M28 165H472V166H28V165Z" fill="#ADADAD"/>
</g>
</g>
</g>
</g>
</g>
<defs>
<clipPath id="clip0_287_168184">
<path d="M28 138C28 135.791 29.7909 134 32 134H468C470.209 134 472 135.791 472 138V162C472 164.209 470.209 166 468 166H32C29.7909 166 28 164.209 28 162V138Z" fill="white"/>
</clipPath>
</defs>
</svg>
