<svg width="500" height="300" viewBox="0 0 500 300" fill="none" xmlns="http://www.w3.org/2000/svg">
<g id="04-C-light">
<rect width="500" height="300" rx="30" fill="white"/>
<g id="Field-horz">
<g id="Form + Text">
<g id="Input">
<g clip-path="url(#clip0_121_37229)">
<g id="Contents">
<rect x="28.5" y="134.5" width="443" height="31" rx="3.5" fill="white"/>
<rect x="28.5" y="134.5" width="443" height="31" rx="3.5" stroke="#D1D1D1"/>
<g id="Icon-Text-stack">
<g id="Text">
<text id="Placeholder text" fill="#707070" xml:space="preserve" style="white-space: pre" font-family="Segoe UI" font-size="14" letter-spacing="0em"><tspan x="40" y="154.797">Placeholder text</tspan></text>
</g>
</g>
</g>
<path id="InFocus" d="M28 164H472V164C472 165.105 471.105 166 470 166H30C28.8954 166 28 165.105 28 164V164Z" fill="#1C60DF"/>
</g>
</g>
</g>
</g>
</g>
<defs>
<clipPath id="clip0_121_37229">
<path d="M28 138C28 135.791 29.7909 134 32 134H468C470.209 134 472 135.791 472 138V162C472 164.209 470.209 166 468 166H32C29.7909 166 28 164.209 28 162V138Z" fill="white"/>
</clipPath>
</defs>
</svg>
