<svg width="500" height="300" viewBox="0 0 500 300" fill="none" xmlns="http://www.w3.org/2000/svg">
<g id="04-F-light">
<rect width="500" height="300" rx="30" fill="white"/>
<g id="Input.AutoFill">
<g id="Input">
<g clip-path="url(#clip0_246_11081)">
<g id="Contents">
<path d="M28.5 138C28.5 136.067 30.067 134.5 32 134.5H468C469.933 134.5 471.5 136.067 471.5 138V162C471.5 163.933 469.933 165.5 468 165.5H32C30.067 165.5 28.5 163.933 28.5 162V138Z" fill="url(#paint0_linear_246_11081)" fill-opacity="0.1"/>
<path d="M28.5 138C28.5 136.067 30.067 134.5 32 134.5H468C469.933 134.5 471.5 136.067 471.5 138V162C471.5 163.933 469.933 165.5 468 165.5H32C30.067 165.5 28.5 163.933 28.5 162V138Z" stroke="url(#paint1_linear_246_11081)"/>
<g id="Icon-Text-stack">
<g id="Text">
<text id="Placeholder text" fill="#707070" xml:space="preserve" style="white-space: pre" font-family="Segoe UI" font-size="14" letter-spacing="0em"><tspan x="40" y="154.797">Placeholder text</tspan></text>
</g>
</g>
</g>
</g>
</g>
</g>
</g>
<defs>
<linearGradient id="paint0_linear_246_11081" x1="28" y1="150" x2="472" y2="150" gradientUnits="userSpaceOnUse">
<stop stop-color="#47CFFA"/>
<stop offset="1" stop-color="#B47CF8"/>
</linearGradient>
<linearGradient id="paint1_linear_246_11081" x1="28" y1="150" x2="472" y2="150" gradientUnits="userSpaceOnUse">
<stop offset="0.35" stop-color="#335CCC"/>
<stop offset="0.7" stop-color="#47CFFA"/>
<stop offset="0.92" stop-color="#B47CF8"/>
</linearGradient>
<clipPath id="clip0_246_11081">
<path d="M28 138C28 135.791 29.7909 134 32 134H468C470.209 134 472 135.791 472 138V162C472 164.209 470.209 166 468 166H32C29.7909 166 28 164.209 28 162V138Z" fill="white"/>
</clipPath>
</defs>
</svg>
