<svg width="500" height="300" viewBox="0 0 500 300" fill="none" xmlns="http://www.w3.org/2000/svg">
<g id="05-A-dark">
<rect width="500" height="300" rx="30" fill="#292929"/>
<g id="Field-horz">
<g id="Form + Text">
<g id="Input">
<g clip-path="url(#clip0_287_168203)">
<g id="Contents">
<rect x="28.5" y="134.5" width="443" height="31" rx="3.5" fill="#292929"/>
<rect x="28.5" y="134.5" width="443" height="31" rx="3.5" stroke="#666666"/>
<g id="Icon-Text-stack">
<g id="Text">
<path id="Entered text" d="M46.4805 155H41.2852V145.197H46.2617V146.236H42.4336V149.497H45.9746V150.529H42.4336V153.961H46.4805V155ZM54.0273 155H52.9062V151.008C52.9062 149.522 52.3639 148.779 51.2793 148.779C50.7188 148.779 50.2539 148.991 49.8848 149.415C49.5202 149.834 49.3379 150.365 49.3379 151.008V155H48.2168V148H49.3379V149.162H49.3652C49.8939 148.278 50.6595 147.836 51.6621 147.836C52.4277 147.836 53.0133 148.084 53.4189 148.581C53.8245 149.073 54.0273 149.786 54.0273 150.721V155ZM59.3936 154.932C59.1292 155.077 58.7806 155.15 58.3477 155.15C57.1217 155.15 56.5088 154.467 56.5088 153.1V148.957H55.3057V148H56.5088V146.291L57.6299 145.929V148H59.3936V148.957H57.6299V152.901C57.6299 153.371 57.7096 153.706 57.8691 153.906C58.0286 154.107 58.293 154.207 58.6621 154.207C58.9447 154.207 59.1885 154.13 59.3936 153.975V154.932ZM66.5166 151.78H61.5742C61.5924 152.56 61.8021 153.161 62.2031 153.585C62.6042 154.009 63.1556 154.221 63.8574 154.221C64.6458 154.221 65.3704 153.961 66.0312 153.441V154.494C65.416 154.941 64.6025 155.164 63.5908 155.164C62.6019 155.164 61.8249 154.847 61.2598 154.214C60.6947 153.576 60.4121 152.68 60.4121 151.527C60.4121 150.438 60.7197 149.552 61.335 148.868C61.9548 148.18 62.7227 147.836 63.6387 147.836C64.5547 147.836 65.2633 148.132 65.7646 148.725C66.266 149.317 66.5166 150.14 66.5166 151.192V151.78ZM65.3682 150.83C65.3636 150.183 65.2064 149.679 64.8965 149.319C64.5911 148.959 64.165 148.779 63.6182 148.779C63.0895 148.779 62.6406 148.968 62.2715 149.347C61.9023 149.725 61.6745 150.219 61.5879 150.83H65.3682ZM71.8691 149.135C71.6732 148.984 71.3906 148.909 71.0215 148.909C70.543 148.909 70.1419 149.135 69.8184 149.586C69.4993 150.037 69.3398 150.652 69.3398 151.432V155H68.2188V148H69.3398V149.442H69.3672C69.5267 148.95 69.7705 148.567 70.0986 148.294C70.4268 148.016 70.7936 147.877 71.1992 147.877C71.4909 147.877 71.7142 147.909 71.8691 147.973V149.135ZM78.7119 151.78H73.7695C73.7878 152.56 73.9974 153.161 74.3984 153.585C74.7995 154.009 75.3509 154.221 76.0527 154.221C76.8411 154.221 77.5658 153.961 78.2266 153.441V154.494C77.6113 154.941 76.7979 155.164 75.7861 155.164C74.7972 155.164 74.0202 154.847 73.4551 154.214C72.89 153.576 72.6074 152.68 72.6074 151.527C72.6074 150.438 72.915 149.552 73.5303 148.868C74.1501 148.18 74.918 147.836 75.834 147.836C76.75 147.836 77.4587 148.132 77.96 148.725C78.4613 149.317 78.7119 150.14 78.7119 151.192V151.78ZM77.5635 150.83C77.5589 150.183 77.4017 149.679 77.0918 149.319C76.7865 148.959 76.3604 148.779 75.8135 148.779C75.2848 148.779 74.8359 148.968 74.4668 149.347C74.0977 149.725 73.8698 150.219 73.7832 150.83H77.5635ZM86.3887 155H85.2676V153.811H85.2402C84.7207 154.713 83.9186 155.164 82.834 155.164C81.9544 155.164 81.2503 154.852 80.7217 154.228C80.1976 153.599 79.9355 152.744 79.9355 151.664C79.9355 150.507 80.2272 149.579 80.8105 148.882C81.3939 148.185 82.1709 147.836 83.1416 147.836C84.1032 147.836 84.8027 148.214 85.2402 148.971H85.2676V144.637H86.3887V155ZM85.2676 151.835V150.803C85.2676 150.238 85.0807 149.759 84.707 149.367C84.3333 148.975 83.8594 148.779 83.2852 148.779C82.6016 148.779 82.0638 149.03 81.6719 149.531C81.2799 150.033 81.084 150.725 81.084 151.609C81.084 152.416 81.2708 153.054 81.6445 153.523C82.0228 153.988 82.5286 154.221 83.1621 154.221C83.7865 154.221 84.2923 153.995 84.6797 153.544C85.0716 153.093 85.2676 152.523 85.2676 151.835ZM95.7471 154.932C95.4827 155.077 95.1341 155.15 94.7012 155.15C93.4753 155.15 92.8623 154.467 92.8623 153.1V148.957H91.6592V148H92.8623V146.291L93.9834 145.929V148H95.7471V148.957H93.9834V152.901C93.9834 153.371 94.0632 153.706 94.2227 153.906C94.3822 154.107 94.6465 154.207 95.0156 154.207C95.2982 154.207 95.542 154.13 95.7471 153.975V154.932ZM102.87 151.78H97.9277C97.946 152.56 98.1556 153.161 98.5566 153.585C98.9577 154.009 99.5091 154.221 100.211 154.221C100.999 154.221 101.724 153.961 102.385 153.441V154.494C101.77 154.941 100.956 155.164 99.9443 155.164C98.9554 155.164 98.1784 154.847 97.6133 154.214C97.0482 153.576 96.7656 152.68 96.7656 151.527C96.7656 150.438 97.0732 149.552 97.6885 148.868C98.3083 148.18 99.0762 147.836 99.9922 147.836C100.908 147.836 101.617 148.132 102.118 148.725C102.619 149.317 102.87 150.14 102.87 151.192V151.78ZM101.722 150.83C101.717 150.183 101.56 149.679 101.25 149.319C100.945 148.959 100.519 148.779 99.9717 148.779C99.443 148.779 98.9941 148.968 98.625 149.347C98.2559 149.725 98.028 150.219 97.9414 150.83H101.722ZM109.686 148L107.334 151.541L109.645 155H108.339L106.965 152.73C106.878 152.589 106.776 152.411 106.657 152.197H106.63C106.607 152.238 106.5 152.416 106.309 152.73L104.907 155H103.615L106.001 151.568L103.718 148H105.023L106.377 150.393C106.477 150.57 106.575 150.753 106.671 150.939H106.698L108.448 148H109.686ZM114.245 154.932C113.981 155.077 113.632 155.15 113.199 155.15C111.973 155.15 111.36 154.467 111.36 153.1V148.957H110.157V148H111.36V146.291L112.481 145.929V148H114.245V148.957H112.481V152.901C112.481 153.371 112.561 153.706 112.721 153.906C112.88 154.107 113.145 154.207 113.514 154.207C113.796 154.207 114.04 154.13 114.245 153.975V154.932Z" fill="white"/>
</g>
</g>
</g>
<path id="Thin underline" d="M28 165H472V166H28V165Z" fill="#ADADAD"/>
</g>
</g>
</g>
</g>
</g>
<defs>
<clipPath id="clip0_287_168203">
<path d="M28 138C28 135.791 29.7909 134 32 134H468C470.209 134 472 135.791 472 138V162C472 164.209 470.209 166 468 166H32C29.7909 166 28 164.209 28 162V138Z" fill="white"/>
</clipPath>
</defs>
</svg>
