<svg width="500" height="300" viewBox="0 0 500 300" fill="none" xmlns="http://www.w3.org/2000/svg">
<g id="12-A-light">
<rect width="500" height="300" rx="30" fill="white"/>
<g id="Field-horz">
<g id="Label + Icon">
<g id="Label">
<text id="Text" fill="#242424" xml:space="preserve" style="white-space: pre" font-family="Segoe UI" font-size="14" letter-spacing="0em"><tspan x="28" y="154.797">Label</tspan></text>
</g>
</g>
<g id="Form + Text">
<g id="Input">
<g id="Contents">
<g id="Icon-Text-stack">
<g id="Icon start medium">
<path id="Shape" d="M227 151C227.552 151 228 150.552 228 150C228 149.448 227.552 149 227 149C226.448 149 226 149.448 226 150C226 150.552 226.448 151 227 151ZM228 153C228 153.552 227.552 154 227 154C226.448 154 226 153.552 226 153C226 152.448 226.448 152 227 152C227.552 152 228 152.448 228 153ZM230 151C230.552 151 231 150.552 231 150C231 149.448 230.552 149 230 149C229.448 149 229 149.448 229 150C229 150.552 229.448 151 230 151ZM231 153C231 153.552 230.552 154 230 154C229.448 154 229 153.552 229 153C229 152.448 229.448 152 230 152C230.552 152 231 152.448 231 153ZM233 151C233.552 151 234 150.552 234 150C234 149.448 233.552 149 233 149C232.448 149 232 149.448 232 150C232 150.552 232.448 151 233 151ZM237 145.5C237 144.119 235.881 143 234.5 143H225.5C224.119 143 223 144.119 223 145.5V154.5C223 155.881 224.119 157 225.5 157H234.5C235.881 157 237 155.881 237 154.5V145.5ZM224 147H236V154.5C236 155.328 235.328 156 234.5 156H225.5C224.672 156 224 155.328 224 154.5V147ZM225.5 144H234.5C235.328 144 236 144.672 236 145.5V146H224V145.5C224 144.672 224.672 144 225.5 144Z" fill="#616161"/>
</g>
<g id="Text_2">
<text id="Placeholder text" fill="#707070" xml:space="preserve" style="white-space: pre" font-family="Segoe UI" font-size="14" letter-spacing="0em"><tspan x="242" y="154.797">Placeholder text</tspan></text>
</g>
</g>
</g>
<path id="Thin underline" d="M210 165H472V166H210V165Z" fill="#616161"/>
</g>
</g>
</g>
</g>
</svg>
