<svg width="500" height="300" viewBox="0 0 500 300" fill="none" xmlns="http://www.w3.org/2000/svg">
<g id="05-E-dark">
<rect width="500" height="300" rx="30" fill="#292929"/>
<g id="Field-horz">
<g id="Label + Icon">
<g id="Label">
<path id="Text" d="M34.3711 155H29.2852V145.197H30.4336V153.961H34.3711V155ZM40.7354 155H39.6143V153.906H39.5869C39.0993 154.745 38.3815 155.164 37.4336 155.164C36.7363 155.164 36.1895 154.979 35.793 154.61C35.401 154.241 35.2051 153.751 35.2051 153.141C35.2051 151.833 35.9753 151.072 37.5156 150.857L39.6143 150.563C39.6143 149.374 39.1335 148.779 38.1719 148.779C37.3288 148.779 36.5677 149.066 35.8887 149.641V148.492C36.5768 148.055 37.3698 147.836 38.2676 147.836C39.9128 147.836 40.7354 148.706 40.7354 150.447V155ZM39.6143 151.459L37.9258 151.691C37.4062 151.764 37.0143 151.894 36.75 152.081C36.4857 152.263 36.3535 152.589 36.3535 153.059C36.3535 153.4 36.4743 153.681 36.7158 153.899C36.9619 154.114 37.2878 154.221 37.6934 154.221C38.2493 154.221 38.7074 154.027 39.0674 153.64C39.432 153.248 39.6143 152.753 39.6143 152.156V151.459ZM43.9961 153.988H43.9688V155H42.8477V144.637H43.9688V149.23H43.9961C44.5475 148.301 45.3542 147.836 46.416 147.836C47.3138 147.836 48.0156 148.15 48.5215 148.779C49.0319 149.404 49.2871 150.242 49.2871 151.295C49.2871 152.466 49.0023 153.405 48.4326 154.111C47.863 154.813 47.0837 155.164 46.0947 155.164C45.1696 155.164 44.4701 154.772 43.9961 153.988ZM43.9688 151.165V152.143C43.9688 152.721 44.1556 153.214 44.5293 153.619C44.9076 154.02 45.3861 154.221 45.9648 154.221C46.6439 154.221 47.1748 153.961 47.5576 153.441C47.945 152.922 48.1387 152.2 48.1387 151.274C48.1387 150.495 47.9587 149.884 47.5986 149.442C47.2386 149 46.751 148.779 46.1357 148.779C45.484 148.779 44.96 149.007 44.5635 149.463C44.167 149.914 43.9688 150.481 43.9688 151.165ZM56.7041 151.78H51.7617C51.7799 152.56 51.9896 153.161 52.3906 153.585C52.7917 154.009 53.3431 154.221 54.0449 154.221C54.8333 154.221 55.5579 153.961 56.2188 153.441V154.494C55.6035 154.941 54.79 155.164 53.7783 155.164C52.7894 155.164 52.0124 154.847 51.4473 154.214C50.8822 153.576 50.5996 152.68 50.5996 151.527C50.5996 150.438 50.9072 149.552 51.5225 148.868C52.1423 148.18 52.9102 147.836 53.8262 147.836C54.7422 147.836 55.4508 148.132 55.9521 148.725C56.4535 149.317 56.7041 150.14 56.7041 151.192V151.78ZM55.5557 150.83C55.5511 150.183 55.3939 149.679 55.084 149.319C54.7786 148.959 54.3525 148.779 53.8057 148.779C53.277 148.779 52.8281 148.968 52.459 149.347C52.0898 149.725 51.862 150.219 51.7754 150.83H55.5557ZM59.5273 155H58.4062V144.637H59.5273V155Z" fill="white"/>
</g>
</g>
<g id="Form + Text">
<g id="Input">
<g clip-path="url(#clip0_287_136924)">
<g id="Contents">
<rect x="210.5" y="134.5" width="261" height="31" rx="3.5" stroke="#424242"/>
<g id="Icon-Text-stack">
<g id="Text_2">
<path id="Placeholder text" d="M224.434 151.295V155H223.285V145.197H225.979C227.027 145.197 227.838 145.452 228.412 145.963C228.991 146.473 229.28 147.193 229.28 148.123C229.28 149.053 228.959 149.814 228.316 150.406C227.678 150.999 226.815 151.295 225.726 151.295H224.434ZM224.434 146.236V150.256H225.637C226.43 150.256 227.034 150.076 227.448 149.716C227.868 149.351 228.077 148.839 228.077 148.178C228.077 146.883 227.312 146.236 225.78 146.236H224.434ZM232.104 155H230.982V144.637H232.104V155ZM239.384 155H238.263V153.906H238.235C237.748 154.745 237.03 155.164 236.082 155.164C235.385 155.164 234.838 154.979 234.441 154.61C234.049 154.241 233.854 153.751 233.854 153.141C233.854 151.833 234.624 151.072 236.164 150.857L238.263 150.563C238.263 149.374 237.782 148.779 236.82 148.779C235.977 148.779 235.216 149.066 234.537 149.641V148.492C235.225 148.055 236.018 147.836 236.916 147.836C238.561 147.836 239.384 148.706 239.384 150.447V155ZM238.263 151.459L236.574 151.691C236.055 151.764 235.663 151.894 235.398 152.081C235.134 152.263 235.002 152.589 235.002 153.059C235.002 153.4 235.123 153.681 235.364 153.899C235.61 154.114 235.936 154.221 236.342 154.221C236.898 154.221 237.356 154.027 237.716 153.64C238.08 153.248 238.263 152.753 238.263 152.156V151.459ZM246.268 154.679C245.73 155.002 245.092 155.164 244.354 155.164C243.355 155.164 242.549 154.84 241.934 154.193C241.323 153.542 241.018 152.699 241.018 151.664C241.018 150.511 241.348 149.586 242.009 148.889C242.67 148.187 243.551 147.836 244.654 147.836C245.27 147.836 245.812 147.95 246.281 148.178V149.326C245.762 148.962 245.206 148.779 244.613 148.779C243.898 148.779 243.31 149.037 242.85 149.552C242.394 150.062 242.166 150.734 242.166 151.568C242.166 152.389 242.38 153.036 242.809 153.51C243.242 153.984 243.82 154.221 244.545 154.221C245.156 154.221 245.73 154.018 246.268 153.612V154.679ZM253.589 151.78H248.646C248.665 152.56 248.874 153.161 249.275 153.585C249.676 154.009 250.228 154.221 250.93 154.221C251.718 154.221 252.443 153.961 253.104 153.441V154.494C252.488 154.941 251.675 155.164 250.663 155.164C249.674 155.164 248.897 154.847 248.332 154.214C247.767 153.576 247.484 152.68 247.484 151.527C247.484 150.438 247.792 149.552 248.407 148.868C249.027 148.18 249.795 147.836 250.711 147.836C251.627 147.836 252.336 148.132 252.837 148.725C253.338 149.317 253.589 150.14 253.589 151.192V151.78ZM252.44 150.83C252.436 150.183 252.279 149.679 251.969 149.319C251.663 148.959 251.237 148.779 250.69 148.779C250.162 148.779 249.713 148.968 249.344 149.347C248.975 149.725 248.747 150.219 248.66 150.83H252.44ZM261.102 155H259.98V150.967C259.98 149.508 259.438 148.779 258.354 148.779C257.807 148.779 257.346 148.991 256.973 149.415C256.599 149.834 256.412 150.374 256.412 151.035V155H255.291V144.637H256.412V149.162H256.439C256.977 148.278 257.743 147.836 258.736 147.836C260.313 147.836 261.102 148.786 261.102 150.687V155ZM266.146 155.164C265.112 155.164 264.285 154.838 263.665 154.187C263.05 153.53 262.742 152.662 262.742 151.582C262.742 150.406 263.063 149.488 263.706 148.827C264.349 148.166 265.217 147.836 266.311 147.836C267.354 147.836 268.168 148.157 268.751 148.8C269.339 149.442 269.633 150.333 269.633 151.473C269.633 152.589 269.316 153.485 268.683 154.159C268.054 154.829 267.208 155.164 266.146 155.164ZM266.229 148.779C265.508 148.779 264.939 149.025 264.52 149.518C264.1 150.005 263.891 150.68 263.891 151.541C263.891 152.37 264.103 153.024 264.526 153.503C264.95 153.981 265.518 154.221 266.229 154.221C266.953 154.221 267.509 153.986 267.896 153.517C268.288 153.047 268.484 152.38 268.484 151.514C268.484 150.639 268.288 149.964 267.896 149.49C267.509 149.016 266.953 148.779 266.229 148.779ZM272.545 155H271.424V144.637H272.545V155ZM280.789 155H279.668V153.811H279.641C279.121 154.713 278.319 155.164 277.234 155.164C276.355 155.164 275.651 154.852 275.122 154.228C274.598 153.599 274.336 152.744 274.336 151.664C274.336 150.507 274.628 149.579 275.211 148.882C275.794 148.185 276.571 147.836 277.542 147.836C278.504 147.836 279.203 148.214 279.641 148.971H279.668V144.637H280.789V155ZM279.668 151.835V150.803C279.668 150.238 279.481 149.759 279.107 149.367C278.734 148.975 278.26 148.779 277.686 148.779C277.002 148.779 276.464 149.03 276.072 149.531C275.68 150.033 275.484 150.725 275.484 151.609C275.484 152.416 275.671 153.054 276.045 153.523C276.423 153.988 276.929 154.221 277.562 154.221C278.187 154.221 278.693 153.995 279.08 153.544C279.472 153.093 279.668 152.523 279.668 151.835ZM288.685 151.78H283.742C283.76 152.56 283.97 153.161 284.371 153.585C284.772 154.009 285.324 154.221 286.025 154.221C286.814 154.221 287.538 153.961 288.199 153.441V154.494C287.584 154.941 286.771 155.164 285.759 155.164C284.77 155.164 283.993 154.847 283.428 154.214C282.863 153.576 282.58 152.68 282.58 151.527C282.58 150.438 282.888 149.552 283.503 148.868C284.123 148.18 284.891 147.836 285.807 147.836C286.723 147.836 287.431 148.132 287.933 148.725C288.434 149.317 288.685 150.14 288.685 151.192V151.78ZM287.536 150.83C287.532 150.183 287.374 149.679 287.064 149.319C286.759 148.959 286.333 148.779 285.786 148.779C285.257 148.779 284.809 148.968 284.439 149.347C284.07 149.725 283.842 150.219 283.756 150.83H287.536ZM294.037 149.135C293.841 148.984 293.559 148.909 293.189 148.909C292.711 148.909 292.31 149.135 291.986 149.586C291.667 150.037 291.508 150.652 291.508 151.432V155H290.387V148H291.508V149.442H291.535C291.695 148.95 291.938 148.567 292.267 148.294C292.595 148.016 292.962 147.877 293.367 147.877C293.659 147.877 293.882 147.909 294.037 147.973V149.135ZM302.343 154.932C302.078 155.077 301.73 155.15 301.297 155.15C300.071 155.15 299.458 154.467 299.458 153.1V148.957H298.255V148H299.458V146.291L300.579 145.929V148H302.343V148.957H300.579V152.901C300.579 153.371 300.659 153.706 300.818 153.906C300.978 154.107 301.242 154.207 301.611 154.207C301.894 154.207 302.138 154.13 302.343 153.975V154.932ZM309.466 151.78H304.523C304.542 152.56 304.751 153.161 305.152 153.585C305.553 154.009 306.105 154.221 306.807 154.221C307.595 154.221 308.32 153.961 308.98 153.441V154.494C308.365 154.941 307.552 155.164 306.54 155.164C305.551 155.164 304.774 154.847 304.209 154.214C303.644 153.576 303.361 152.68 303.361 151.527C303.361 150.438 303.669 149.552 304.284 148.868C304.904 148.18 305.672 147.836 306.588 147.836C307.504 147.836 308.213 148.132 308.714 148.725C309.215 149.317 309.466 150.14 309.466 151.192V151.78ZM308.317 150.83C308.313 150.183 308.156 149.679 307.846 149.319C307.54 148.959 307.114 148.779 306.567 148.779C306.039 148.779 305.59 148.968 305.221 149.347C304.852 149.725 304.624 150.219 304.537 150.83H308.317ZM316.281 148L313.93 151.541L316.24 155H314.935L313.561 152.73C313.474 152.589 313.371 152.411 313.253 152.197H313.226C313.203 152.238 313.096 152.416 312.904 152.73L311.503 155H310.211L312.597 151.568L310.313 148H311.619L312.973 150.393C313.073 150.57 313.171 150.753 313.267 150.939H313.294L315.044 148H316.281ZM320.841 154.932C320.576 155.077 320.228 155.15 319.795 155.15C318.569 155.15 317.956 154.467 317.956 153.1V148.957H316.753V148H317.956V146.291L319.077 145.929V148H320.841V148.957H319.077V152.901C319.077 153.371 319.157 153.706 319.316 153.906C319.476 154.107 319.74 154.207 320.109 154.207C320.392 154.207 320.636 154.13 320.841 153.975V154.932Z" fill="#5C5C5C"/>
</g>
</g>
</g>
</g>
</g>
</g>
</g>
</g>
<defs>
<clipPath id="clip0_287_136924">
<path d="M210 138C210 135.791 211.791 134 214 134H468C470.209 134 472 135.791 472 138V162C472 164.209 470.209 166 468 166H214C211.791 166 210 164.209 210 162V138Z" fill="white"/>
</clipPath>
</defs>
</svg>
