<svg width="500" height="300" viewBox="0 0 500 300" fill="none" xmlns="http://www.w3.org/2000/svg">
<g id="05-A-dark">
<rect width="500" height="300" rx="30" fill="#292929"/>
<g id="Field">
<g id="Label + Icon">
<g id="Label">
<path id="Text" d="M34.3711 139H29.2852V129.197H30.4336V137.961H34.3711V139ZM40.7354 139H39.6143V137.906H39.5869C39.0993 138.745 38.3815 139.164 37.4336 139.164C36.7363 139.164 36.1895 138.979 35.793 138.61C35.401 138.241 35.2051 137.751 35.2051 137.141C35.2051 135.833 35.9753 135.072 37.5156 134.857L39.6143 134.563C39.6143 133.374 39.1335 132.779 38.1719 132.779C37.3288 132.779 36.5677 133.066 35.8887 133.641V132.492C36.5768 132.055 37.3698 131.836 38.2676 131.836C39.9128 131.836 40.7354 132.706 40.7354 134.447V139ZM39.6143 135.459L37.9258 135.691C37.4062 135.764 37.0143 135.894 36.75 136.081C36.4857 136.263 36.3535 136.589 36.3535 137.059C36.3535 137.4 36.4743 137.681 36.7158 137.899C36.9619 138.114 37.2878 138.221 37.6934 138.221C38.2493 138.221 38.7074 138.027 39.0674 137.64C39.432 137.248 39.6143 136.753 39.6143 136.156V135.459ZM43.9961 137.988H43.9688V139H42.8477V128.637H43.9688V133.23H43.9961C44.5475 132.301 45.3542 131.836 46.416 131.836C47.3138 131.836 48.0156 132.15 48.5215 132.779C49.0319 133.404 49.2871 134.242 49.2871 135.295C49.2871 136.466 49.0023 137.405 48.4326 138.111C47.863 138.813 47.0837 139.164 46.0947 139.164C45.1696 139.164 44.4701 138.772 43.9961 137.988ZM43.9688 135.165V136.143C43.9688 136.721 44.1556 137.214 44.5293 137.619C44.9076 138.02 45.3861 138.221 45.9648 138.221C46.6439 138.221 47.1748 137.961 47.5576 137.441C47.945 136.922 48.1387 136.2 48.1387 135.274C48.1387 134.495 47.9587 133.884 47.5986 133.442C47.2386 133 46.751 132.779 46.1357 132.779C45.484 132.779 44.96 133.007 44.5635 133.463C44.167 133.914 43.9688 134.481 43.9688 135.165ZM56.7041 135.78H51.7617C51.7799 136.56 51.9896 137.161 52.3906 137.585C52.7917 138.009 53.3431 138.221 54.0449 138.221C54.8333 138.221 55.5579 137.961 56.2188 137.441V138.494C55.6035 138.941 54.79 139.164 53.7783 139.164C52.7894 139.164 52.0124 138.847 51.4473 138.214C50.8822 137.576 50.5996 136.68 50.5996 135.527C50.5996 134.438 50.9072 133.552 51.5225 132.868C52.1423 132.18 52.9102 131.836 53.8262 131.836C54.7422 131.836 55.4508 132.132 55.9521 132.725C56.4535 133.317 56.7041 134.14 56.7041 135.192V135.78ZM55.5557 134.83C55.5511 134.183 55.3939 133.679 55.084 133.319C54.7786 132.959 54.3525 132.779 53.8057 132.779C53.277 132.779 52.8281 132.968 52.459 133.347C52.0898 133.725 51.862 134.219 51.7754 134.83H55.5557ZM59.5273 139H58.4062V128.637H59.5273V139Z" fill="white"/>
</g>
</g>
<g id="Form + Text">
<g id="Input">
<g clip-path="url(#clip0_287_136804)">
<g id="Contents">
<rect x="28" y="147" width="444" height="32" rx="4" fill="#141414"/>
<g id="Icon-Text-stack">
<g id="Text_2">
<path id="Entered text" d="M46.4805 168H41.2852V158.197H46.2617V159.236H42.4336V162.497H45.9746V163.529H42.4336V166.961H46.4805V168ZM54.0273 168H52.9062V164.008C52.9062 162.522 52.3639 161.779 51.2793 161.779C50.7188 161.779 50.2539 161.991 49.8848 162.415C49.5202 162.834 49.3379 163.365 49.3379 164.008V168H48.2168V161H49.3379V162.162H49.3652C49.8939 161.278 50.6595 160.836 51.6621 160.836C52.4277 160.836 53.0133 161.084 53.4189 161.581C53.8245 162.073 54.0273 162.786 54.0273 163.721V168ZM59.3936 167.932C59.1292 168.077 58.7806 168.15 58.3477 168.15C57.1217 168.15 56.5088 167.467 56.5088 166.1V161.957H55.3057V161H56.5088V159.291L57.6299 158.929V161H59.3936V161.957H57.6299V165.901C57.6299 166.371 57.7096 166.706 57.8691 166.906C58.0286 167.107 58.293 167.207 58.6621 167.207C58.9447 167.207 59.1885 167.13 59.3936 166.975V167.932ZM66.5166 164.78H61.5742C61.5924 165.56 61.8021 166.161 62.2031 166.585C62.6042 167.009 63.1556 167.221 63.8574 167.221C64.6458 167.221 65.3704 166.961 66.0312 166.441V167.494C65.416 167.941 64.6025 168.164 63.5908 168.164C62.6019 168.164 61.8249 167.847 61.2598 167.214C60.6947 166.576 60.4121 165.68 60.4121 164.527C60.4121 163.438 60.7197 162.552 61.335 161.868C61.9548 161.18 62.7227 160.836 63.6387 160.836C64.5547 160.836 65.2633 161.132 65.7646 161.725C66.266 162.317 66.5166 163.14 66.5166 164.192V164.78ZM65.3682 163.83C65.3636 163.183 65.2064 162.679 64.8965 162.319C64.5911 161.959 64.165 161.779 63.6182 161.779C63.0895 161.779 62.6406 161.968 62.2715 162.347C61.9023 162.725 61.6745 163.219 61.5879 163.83H65.3682ZM71.8691 162.135C71.6732 161.984 71.3906 161.909 71.0215 161.909C70.543 161.909 70.1419 162.135 69.8184 162.586C69.4993 163.037 69.3398 163.652 69.3398 164.432V168H68.2188V161H69.3398V162.442H69.3672C69.5267 161.95 69.7705 161.567 70.0986 161.294C70.4268 161.016 70.7936 160.877 71.1992 160.877C71.4909 160.877 71.7142 160.909 71.8691 160.973V162.135ZM78.7119 164.78H73.7695C73.7878 165.56 73.9974 166.161 74.3984 166.585C74.7995 167.009 75.3509 167.221 76.0527 167.221C76.8411 167.221 77.5658 166.961 78.2266 166.441V167.494C77.6113 167.941 76.7979 168.164 75.7861 168.164C74.7972 168.164 74.0202 167.847 73.4551 167.214C72.89 166.576 72.6074 165.68 72.6074 164.527C72.6074 163.438 72.915 162.552 73.5303 161.868C74.1501 161.18 74.918 160.836 75.834 160.836C76.75 160.836 77.4587 161.132 77.96 161.725C78.4613 162.317 78.7119 163.14 78.7119 164.192V164.78ZM77.5635 163.83C77.5589 163.183 77.4017 162.679 77.0918 162.319C76.7865 161.959 76.3604 161.779 75.8135 161.779C75.2848 161.779 74.8359 161.968 74.4668 162.347C74.0977 162.725 73.8698 163.219 73.7832 163.83H77.5635ZM86.3887 168H85.2676V166.811H85.2402C84.7207 167.713 83.9186 168.164 82.834 168.164C81.9544 168.164 81.2503 167.852 80.7217 167.228C80.1976 166.599 79.9355 165.744 79.9355 164.664C79.9355 163.507 80.2272 162.579 80.8105 161.882C81.3939 161.185 82.1709 160.836 83.1416 160.836C84.1032 160.836 84.8027 161.214 85.2402 161.971H85.2676V157.637H86.3887V168ZM85.2676 164.835V163.803C85.2676 163.238 85.0807 162.759 84.707 162.367C84.3333 161.975 83.8594 161.779 83.2852 161.779C82.6016 161.779 82.0638 162.03 81.6719 162.531C81.2799 163.033 81.084 163.725 81.084 164.609C81.084 165.416 81.2708 166.054 81.6445 166.523C82.0228 166.988 82.5286 167.221 83.1621 167.221C83.7865 167.221 84.2923 166.995 84.6797 166.544C85.0716 166.093 85.2676 165.523 85.2676 164.835ZM95.7471 167.932C95.4827 168.077 95.1341 168.15 94.7012 168.15C93.4753 168.15 92.8623 167.467 92.8623 166.1V161.957H91.6592V161H92.8623V159.291L93.9834 158.929V161H95.7471V161.957H93.9834V165.901C93.9834 166.371 94.0632 166.706 94.2227 166.906C94.3822 167.107 94.6465 167.207 95.0156 167.207C95.2982 167.207 95.542 167.13 95.7471 166.975V167.932ZM102.87 164.78H97.9277C97.946 165.56 98.1556 166.161 98.5566 166.585C98.9577 167.009 99.5091 167.221 100.211 167.221C100.999 167.221 101.724 166.961 102.385 166.441V167.494C101.77 167.941 100.956 168.164 99.9443 168.164C98.9554 168.164 98.1784 167.847 97.6133 167.214C97.0482 166.576 96.7656 165.68 96.7656 164.527C96.7656 163.438 97.0732 162.552 97.6885 161.868C98.3083 161.18 99.0762 160.836 99.9922 160.836C100.908 160.836 101.617 161.132 102.118 161.725C102.619 162.317 102.87 163.14 102.87 164.192V164.78ZM101.722 163.83C101.717 163.183 101.56 162.679 101.25 162.319C100.945 161.959 100.519 161.779 99.9717 161.779C99.443 161.779 98.9941 161.968 98.625 162.347C98.2559 162.725 98.028 163.219 97.9414 163.83H101.722ZM109.686 161L107.334 164.541L109.645 168H108.339L106.965 165.73C106.878 165.589 106.776 165.411 106.657 165.197H106.63C106.607 165.238 106.5 165.416 106.309 165.73L104.907 168H103.615L106.001 164.568L103.718 161H105.023L106.377 163.393C106.477 163.57 106.575 163.753 106.671 163.939H106.698L108.448 161H109.686ZM114.245 167.932C113.981 168.077 113.632 168.15 113.199 168.15C111.973 168.15 111.36 167.467 111.36 166.1V161.957H110.157V161H111.36V159.291L112.481 158.929V161H114.245V161.957H112.481V165.901C112.481 166.371 112.561 166.706 112.721 166.906C112.88 167.107 113.145 167.207 113.514 167.207C113.796 167.207 114.04 167.13 114.245 166.975V167.932Z" fill="white"/>
</g>
</g>
</g>
</g>
</g>
</g>
</g>
</g>
<defs>
<clipPath id="clip0_287_136804">
<path d="M28 151C28 148.791 29.7909 147 32 147H468C470.209 147 472 148.791 472 151V175C472 177.209 470.209 179 468 179H32C29.7909 179 28 177.209 28 175V151Z" fill="white"/>
</clipPath>
</defs>
</svg>
