<svg width="500" height="300" viewBox="0 0 500 300" fill="none" xmlns="http://www.w3.org/2000/svg">
<g id="07-B-light">
<rect width="500" height="300" rx="30" fill="white"/>
<g id="Field">
<g id="Label + Icon">
<g id="Label">
<text id="Text" fill="#242424" xml:space="preserve" style="white-space: pre" font-family="Segoe UI" font-size="14" letter-spacing="0em"><tspan x="28" y="138.797">Label</tspan></text>
</g>
</g>
<g id="Form + Text">
<g id="Input">
<g clip-path="url(#clip0_173_8468)">
<g id="Contents">
<rect x="28" y="147" width="444" height="32" rx="4" fill="#F5F5F5"/>
<g id="Icon-Text-stack">
<g id="Text_2">
<text id="Entered text" fill="#242424" xml:space="preserve" style="white-space: pre" font-family="Segoe UI" font-size="14" letter-spacing="0em"><tspan x="40" y="167.797">Entered text</tspan></text>
</g>
</g>
<g id="Icon End">
<g id="Icon End 1 medium">
<path id="Shape" d="M457.854 160.646C458.049 160.841 458.05 161.157 457.855 161.353L452.39 166.837C452.175 167.053 451.826 167.053 451.611 166.837L446.146 161.353C445.951 161.157 445.951 160.841 446.147 160.646C446.343 160.451 446.659 160.451 446.854 160.647L452 165.812L457.147 160.647C457.342 160.451 457.658 160.451 457.854 160.646Z" fill="#616161"/>
</g>
</g>
</g>
<path id="Pressed" d="M189.742 177H311.842L311.666 179H189.903L189.742 177Z" fill="#0F548C"/>
</g>
</g>
</g>
</g>
</g>
<defs>
<clipPath id="clip0_173_8468">
<path d="M28 151C28 148.791 29.7909 147 32 147H468C470.209 147 472 148.791 472 151V175C472 177.209 470.209 179 468 179H32C29.7909 179 28 177.209 28 175V151Z" fill="white"/>
</clipPath>
</defs>
</svg>
