<svg width="500" height="300" viewBox="0 0 500 300" fill="none" xmlns="http://www.w3.org/2000/svg">
<g id="02-D-dark">
<rect width="500" height="300" rx="30" fill="#292929"/>
<g id="Field">
<g id="Label + Icon">
<g id="Label">
<text id="Text" fill="white" xml:space="preserve" style="white-space: pre" font-family="Segoe UI" font-size="14" letter-spacing="0em"><tspan x="28" y="138.797">Label</tspan></text>
</g>
</g>
<g id="Form + Text">
<g id="Input">
<g clip-path="url(#clip0_287_168065)">
<g id="Contents">
<rect x="28.5" y="147.5" width="443" height="31" rx="3.5" fill="#292929"/>
<rect x="28.5" y="147.5" width="443" height="31" rx="3.5" stroke="#DC626D"/>
<g id="Icon-Text-stack">
<g id="Icon start medium">
<path id="Shape" d="M45 164C45.5523 164 46 163.552 46 163C46 162.448 45.5523 162 45 162C44.4477 162 44 162.448 44 163C44 163.552 44.4477 164 45 164ZM46 166C46 166.552 45.5523 167 45 167C44.4477 167 44 166.552 44 166C44 165.448 44.4477 165 45 165C45.5523 165 46 165.448 46 166ZM48 164C48.5523 164 49 163.552 49 163C49 162.448 48.5523 162 48 162C47.4477 162 47 162.448 47 163C47 163.552 47.4477 164 48 164ZM49 166C49 166.552 48.5523 167 48 167C47.4477 167 47 166.552 47 166C47 165.448 47.4477 165 48 165C48.5523 165 49 165.448 49 166ZM51 164C51.5523 164 52 163.552 52 163C52 162.448 51.5523 162 51 162C50.4477 162 50 162.448 50 163C50 163.552 50.4477 164 51 164ZM55 158.5C55 157.119 53.8807 156 52.5 156H43.5C42.1193 156 41 157.119 41 158.5V167.5C41 168.881 42.1193 170 43.5 170H52.5C53.8807 170 55 168.881 55 167.5V158.5ZM42 160H54V167.5C54 168.328 53.3284 169 52.5 169H43.5C42.6716 169 42 168.328 42 167.5V160ZM43.5 157H52.5C53.3284 157 54 157.672 54 158.5V159H42V158.5C42 157.672 42.6716 157 43.5 157Z" fill="#ADADAD"/>
</g>
</g>
</g>
</g>
</g>
</g>
</g>
</g>
<defs>
<clipPath id="clip0_287_168065">
<path d="M28 151C28 148.791 29.7909 147 32 147H468C470.209 147 472 148.791 472 151V175C472 177.209 470.209 179 468 179H32C29.7909 179 28 177.209 28 175V151Z" fill="white"/>
</clipPath>
</defs>
</svg>
