<svg width="500" height="300" viewBox="0 0 500 300" fill="none" xmlns="http://www.w3.org/2000/svg">
<g id="04-F-dark">
<rect width="500" height="300" rx="30" fill="#292929"/>
<g id="Field">
<g id="Label + Icon">
<g id="Label">
<text id="Text" fill="white" xml:space="preserve" style="white-space: pre" font-family="Segoe UI" font-size="14" letter-spacing="0em"><tspan x="28" y="138.797">Label</tspan></text>
</g>
</g>
<g id="Form + Text">
<g id="Input">
<g clip-path="url(#clip0_287_168079)">
<g id="Contents">
<rect x="28.5" y="147.5" width="443" height="31" rx="3.5" stroke="#D1D1D1"/>
</g>
</g>
</g>
</g>
</g>
<g id="Input.AutoFill">
<g id="Input_2">
<g clip-path="url(#clip1_287_168079)">
<g id="Contents_2">
<path d="M32 147.5H468C469.933 147.5 471.5 149.067 471.5 151V175C471.5 176.933 469.933 178.5 468 178.5H32C30.067 178.5 28.5 176.933 28.5 175V151C28.5 149.067 30.067 147.5 32 147.5Z" fill="url(#paint0_linear_287_168079)" fill-opacity="0.1"/>
<path d="M32 147.5H468C469.933 147.5 471.5 149.067 471.5 151V175C471.5 176.933 469.933 178.5 468 178.5H32C30.067 178.5 28.5 176.933 28.5 175V151C28.5 149.067 30.067 147.5 32 147.5Z" stroke="url(#paint1_linear_287_168079)"/>
<g id="Icon-Text-stack">
<g id="Text_2">
<text id="Placeholder text" fill="#707070" xml:space="preserve" style="white-space: pre" font-family="Segoe UI" font-size="14" letter-spacing="0em"><tspan x="40" y="167.797">Placeholder text</tspan></text>
</g>
</g>
</g>
</g>
</g>
</g>
</g>
<defs>
<linearGradient id="paint0_linear_287_168079" x1="28" y1="163" x2="472" y2="163" gradientUnits="userSpaceOnUse">
<stop stop-color="#47CFFA"/>
<stop offset="1" stop-color="#B47CF8"/>
</linearGradient>
<linearGradient id="paint1_linear_287_168079" x1="28" y1="163" x2="472" y2="163" gradientUnits="userSpaceOnUse">
<stop offset="0.35" stop-color="#335CCC"/>
<stop offset="0.7" stop-color="#47CFFA"/>
<stop offset="0.92" stop-color="#B47CF8"/>
</linearGradient>
<clipPath id="clip0_287_168079">
<path d="M28 151C28 148.791 29.7909 147 32 147H468C470.209 147 472 148.791 472 151V175C472 177.209 470.209 179 468 179H32C29.7909 179 28 177.209 28 175V151Z" fill="white"/>
</clipPath>
<clipPath id="clip1_287_168079">
<path d="M28 151C28 148.791 29.7909 147 32 147H468C470.209 147 472 148.791 472 151V175C472 177.209 470.209 179 468 179H32C29.7909 179 28 177.209 28 175V151Z" fill="white"/>
</clipPath>
</defs>
</svg>
