<svg width="500" height="300" viewBox="0 0 500 300" fill="none" xmlns="http://www.w3.org/2000/svg">
<g id="05-B-dark">
<rect width="500" height="300" rx="30" fill="#292929"/>
<g id="Field">
<g id="Label + Icon">
<g id="Label">
<text id="Text" fill="white" xml:space="preserve" style="white-space: pre" font-family="Segoe UI" font-size="14" letter-spacing="0em"><tspan x="28" y="138.797">Label</tspan></text>
</g>
</g>
<g id="Form + Text">
<g id="Input">
<g clip-path="url(#clip0_287_168082)">
<g id="Contents">
<rect x="28.5" y="147.5" width="443" height="31" rx="3.5" fill="#292929"/>
<rect x="28.5" y="147.5" width="443" height="31" rx="3.5" stroke="#6B6B6B"/>
<g id="Icon-Text-stack">
<g id="Text_2">
<text id="Entered text" fill="white" xml:space="preserve" style="white-space: pre" font-family="Segoe UI" font-size="14" letter-spacing="0em"><tspan x="40" y="167.797">Entered text</tspan></text>
</g>
</g>
</g>
<path id="Thick underline" d="M28 177H472V179H28V177Z" fill="#B3B3B3"/>
<path id="Pressed" d="M189.743 177H311.843L311.667 179H189.904L189.743 177Z" fill="#2A70EF"/>
</g>
</g>
</g>
</g>
</g>
<defs>
<clipPath id="clip0_287_168082">
<path d="M28 151C28 148.791 29.7909 147 32 147H468C470.209 147 472 148.791 472 151V175C472 177.209 470.209 179 468 179H32C29.7909 179 28 177.209 28 175V151Z" fill="white"/>
</clipPath>
</defs>
</svg>
