<svg width="500" height="300" viewBox="0 0 500 300" fill="none" xmlns="http://www.w3.org/2000/svg">
<g id="01-A-dark">
<rect width="500" height="300" rx="30" fill="#292929"/>
<g id="Field-horz">
<g id="Label + Icon">
<g id="Label">
<path id="Text" d="M34.3711 155H29.2852V145.197H30.4336V153.961H34.3711V155ZM40.7354 155H39.6143V153.906H39.5869C39.0993 154.745 38.3815 155.164 37.4336 155.164C36.7363 155.164 36.1895 154.979 35.793 154.61C35.401 154.241 35.2051 153.751 35.2051 153.141C35.2051 151.833 35.9753 151.072 37.5156 150.857L39.6143 150.563C39.6143 149.374 39.1335 148.779 38.1719 148.779C37.3288 148.779 36.5677 149.066 35.8887 149.641V148.492C36.5768 148.055 37.3698 147.836 38.2676 147.836C39.9128 147.836 40.7354 148.706 40.7354 150.447V155ZM39.6143 151.459L37.9258 151.691C37.4062 151.764 37.0143 151.894 36.75 152.081C36.4857 152.263 36.3535 152.589 36.3535 153.059C36.3535 153.4 36.4743 153.681 36.7158 153.899C36.9619 154.114 37.2878 154.221 37.6934 154.221C38.2493 154.221 38.7074 154.027 39.0674 153.64C39.432 153.248 39.6143 152.753 39.6143 152.156V151.459ZM43.9961 153.988H43.9688V155H42.8477V144.637H43.9688V149.23H43.9961C44.5475 148.301 45.3542 147.836 46.416 147.836C47.3138 147.836 48.0156 148.15 48.5215 148.779C49.0319 149.404 49.2871 150.242 49.2871 151.295C49.2871 152.466 49.0023 153.405 48.4326 154.111C47.863 154.813 47.0837 155.164 46.0947 155.164C45.1696 155.164 44.4701 154.772 43.9961 153.988ZM43.9688 151.165V152.143C43.9688 152.721 44.1556 153.214 44.5293 153.619C44.9076 154.02 45.3861 154.221 45.9648 154.221C46.6439 154.221 47.1748 153.961 47.5576 153.441C47.945 152.922 48.1387 152.2 48.1387 151.274C48.1387 150.495 47.9587 149.884 47.5986 149.442C47.2386 149 46.751 148.779 46.1357 148.779C45.484 148.779 44.96 149.007 44.5635 149.463C44.167 149.914 43.9688 150.481 43.9688 151.165ZM56.7041 151.78H51.7617C51.7799 152.56 51.9896 153.161 52.3906 153.585C52.7917 154.009 53.3431 154.221 54.0449 154.221C54.8333 154.221 55.5579 153.961 56.2188 153.441V154.494C55.6035 154.941 54.79 155.164 53.7783 155.164C52.7894 155.164 52.0124 154.847 51.4473 154.214C50.8822 153.576 50.5996 152.68 50.5996 151.527C50.5996 150.438 50.9072 149.552 51.5225 148.868C52.1423 148.18 52.9102 147.836 53.8262 147.836C54.7422 147.836 55.4508 148.132 55.9521 148.725C56.4535 149.317 56.7041 150.14 56.7041 151.192V151.78ZM55.5557 150.83C55.5511 150.183 55.3939 149.679 55.084 149.319C54.7786 148.959 54.3525 148.779 53.8057 148.779C53.277 148.779 52.8281 148.968 52.459 149.347C52.0898 149.725 51.862 150.219 51.7754 150.83H55.5557ZM59.5273 155H58.4062V144.637H59.5273V155Z" fill="white"/>
</g>
</g>
<g id="Form + Text">
<g id="Input">
<g clip-path="url(#clip0_287_168117)">
<g id="Contents">
<rect x="210.5" y="134.5" width="261" height="31" rx="3.5" fill="#292929"/>
<rect x="210.5" y="134.5" width="261" height="31" rx="3.5" stroke="#666666"/>
</g>
<path id="Thin underline" d="M210 165H472V166H210V165Z" fill="#ADADAD"/>
</g>
</g>
</g>
</g>
</g>
<defs>
<clipPath id="clip0_287_168117">
<path d="M210 138C210 135.791 211.791 134 214 134H468C470.209 134 472 135.791 472 138V162C472 164.209 470.209 166 468 166H214C211.791 166 210 164.209 210 162V138Z" fill="white"/>
</clipPath>
</defs>
</svg>
