<svg width="500" height="300" viewBox="0 0 500 300" fill="none" xmlns="http://www.w3.org/2000/svg">
<g id="03-C-light">
<rect width="500" height="300" rx="30" fill="white"/>
<g id="Field-horz">
<g id="Label + Icon">
<g id="Label">
<text id="Text" fill="#242424" xml:space="preserve" style="white-space: pre" font-family="Segoe UI" font-size="14" letter-spacing="0em"><tspan x="28" y="154.797">Label</tspan></text>
</g>
</g>
<g id="Form + Text">
<g id="Input">
<g clip-path="url(#clip0_173_3689)">
<g id="Contents">
<rect x="210.5" y="134.5" width="261" height="31" rx="3.5" fill="white"/>
<rect x="210.5" y="134.5" width="261" height="31" rx="3.5" stroke="#D1D1D1"/>
</g>
<path id="InFocus" d="M210 164H472V164C472 165.105 471.105 166 470 166H212C210.895 166 210 165.105 210 164V164Z" fill="#1C60DF"/>
</g>
</g>
</g>
</g>
</g>
<defs>
<clipPath id="clip0_173_3689">
<path d="M210 138C210 135.791 211.791 134 214 134H468C470.209 134 472 135.791 472 138V162C472 164.209 470.209 166 468 166H214C211.791 166 210 164.209 210 162V138Z" fill="white"/>
</clipPath>
</defs>
</svg>
