<svg width="500" height="300" viewBox="0 0 500 300" fill="none" xmlns="http://www.w3.org/2000/svg">
<g id="05-F-light">
<rect width="500" height="300" rx="30" fill="white"/>
<g id="Field-horz">
<g id="Label + Icon">
<g id="Label">
<path id="Text" d="M34.3711 155H29.2852V145.197H30.4336V153.961H34.3711V155ZM40.7354 155H39.6143V153.906H39.5869C39.0993 154.745 38.3815 155.164 37.4336 155.164C36.7363 155.164 36.1895 154.979 35.793 154.61C35.401 154.241 35.2051 153.751 35.2051 153.141C35.2051 151.833 35.9753 151.072 37.5156 150.857L39.6143 150.563C39.6143 149.374 39.1335 148.779 38.1719 148.779C37.3288 148.779 36.5677 149.066 35.8887 149.641V148.492C36.5768 148.055 37.3698 147.836 38.2676 147.836C39.9128 147.836 40.7354 148.706 40.7354 150.447V155ZM39.6143 151.459L37.9258 151.691C37.4062 151.764 37.0143 151.894 36.75 152.081C36.4857 152.263 36.3535 152.589 36.3535 153.059C36.3535 153.4 36.4743 153.681 36.7158 153.899C36.9619 154.114 37.2878 154.221 37.6934 154.221C38.2493 154.221 38.7074 154.027 39.0674 153.64C39.432 153.248 39.6143 152.753 39.6143 152.156V151.459ZM43.9961 153.988H43.9688V155H42.8477V144.637H43.9688V149.23H43.9961C44.5475 148.301 45.3542 147.836 46.416 147.836C47.3138 147.836 48.0156 148.15 48.5215 148.779C49.0319 149.404 49.2871 150.242 49.2871 151.295C49.2871 152.466 49.0023 153.405 48.4326 154.111C47.863 154.813 47.0837 155.164 46.0947 155.164C45.1696 155.164 44.4701 154.772 43.9961 153.988ZM43.9688 151.165V152.143C43.9688 152.721 44.1556 153.214 44.5293 153.619C44.9076 154.02 45.3861 154.221 45.9648 154.221C46.6439 154.221 47.1748 153.961 47.5576 153.441C47.945 152.922 48.1387 152.2 48.1387 151.274C48.1387 150.495 47.9587 149.884 47.5986 149.442C47.2386 149 46.751 148.779 46.1357 148.779C45.484 148.779 44.96 149.007 44.5635 149.463C44.167 149.914 43.9688 150.481 43.9688 151.165ZM56.7041 151.78H51.7617C51.7799 152.56 51.9896 153.161 52.3906 153.585C52.7917 154.009 53.3431 154.221 54.0449 154.221C54.8333 154.221 55.5579 153.961 56.2188 153.441V154.494C55.6035 154.941 54.79 155.164 53.7783 155.164C52.7894 155.164 52.0124 154.847 51.4473 154.214C50.8822 153.576 50.5996 152.68 50.5996 151.527C50.5996 150.438 50.9072 149.552 51.5225 148.868C52.1423 148.18 52.9102 147.836 53.8262 147.836C54.7422 147.836 55.4508 148.132 55.9521 148.725C56.4535 149.317 56.7041 150.14 56.7041 151.192V151.78ZM55.5557 150.83C55.5511 150.183 55.3939 149.679 55.084 149.319C54.7786 148.959 54.3525 148.779 53.8057 148.779C53.277 148.779 52.8281 148.968 52.459 149.347C52.0898 149.725 51.862 150.219 51.7754 150.83H55.5557ZM59.5273 155H58.4062V144.637H59.5273V155Z" fill="#242424"/>
</g>
</g>
<g id="Form + Text">
<g id="Input.AutoFill">
<g id="Input">
<g clip-path="url(#clip0_246_10876)">
<g id="Contents">
<path d="M210.5 138C210.5 136.067 212.067 134.5 214 134.5H396C397.933 134.5 399.5 136.067 399.5 138V162C399.5 163.933 397.933 165.5 396 165.5H214C212.067 165.5 210.5 163.933 210.5 162V138Z" fill="url(#paint0_linear_246_10876)" fill-opacity="0.1"/>
<path d="M210.5 138C210.5 136.067 212.067 134.5 214 134.5H396C397.933 134.5 399.5 136.067 399.5 138V162C399.5 163.933 397.933 165.5 396 165.5H214C212.067 165.5 210.5 163.933 210.5 162V138Z" stroke="url(#paint1_linear_246_10876)"/>
<g id="Icon-Text-stack">
<g id="Text_2">
<path id="Placeholder text" d="M228.48 155H223.285V145.197H228.262V146.236H224.434V149.497H227.975V150.529H224.434V153.961H228.48V155ZM236.027 155H234.906V151.008C234.906 149.522 234.364 148.779 233.279 148.779C232.719 148.779 232.254 148.991 231.885 149.415C231.52 149.834 231.338 150.365 231.338 151.008V155H230.217V148H231.338V149.162H231.365C231.894 148.278 232.66 147.836 233.662 147.836C234.428 147.836 235.013 148.084 235.419 148.581C235.825 149.073 236.027 149.786 236.027 150.721V155ZM241.394 154.932C241.129 155.077 240.781 155.15 240.348 155.15C239.122 155.15 238.509 154.467 238.509 153.1V148.957H237.306V148H238.509V146.291L239.63 145.929V148H241.394V148.957H239.63V152.901C239.63 153.371 239.71 153.706 239.869 153.906C240.029 154.107 240.293 154.207 240.662 154.207C240.945 154.207 241.188 154.13 241.394 153.975V154.932ZM248.517 151.78H243.574C243.592 152.56 243.802 153.161 244.203 153.585C244.604 154.009 245.156 154.221 245.857 154.221C246.646 154.221 247.37 153.961 248.031 153.441V154.494C247.416 154.941 246.603 155.164 245.591 155.164C244.602 155.164 243.825 154.847 243.26 154.214C242.695 153.576 242.412 152.68 242.412 151.527C242.412 150.438 242.72 149.552 243.335 148.868C243.955 148.18 244.723 147.836 245.639 147.836C246.555 147.836 247.263 148.132 247.765 148.725C248.266 149.317 248.517 150.14 248.517 151.192V151.78ZM247.368 150.83C247.364 150.183 247.206 149.679 246.896 149.319C246.591 148.959 246.165 148.779 245.618 148.779C245.09 148.779 244.641 148.968 244.271 149.347C243.902 149.725 243.674 150.219 243.588 150.83H247.368ZM253.869 149.135C253.673 148.984 253.391 148.909 253.021 148.909C252.543 148.909 252.142 149.135 251.818 149.586C251.499 150.037 251.34 150.652 251.34 151.432V155H250.219V148H251.34V149.442H251.367C251.527 148.95 251.771 148.567 252.099 148.294C252.427 148.016 252.794 147.877 253.199 147.877C253.491 147.877 253.714 147.909 253.869 147.973V149.135ZM260.712 151.78H255.77C255.788 152.56 255.997 153.161 256.398 153.585C256.799 154.009 257.351 154.221 258.053 154.221C258.841 154.221 259.566 153.961 260.227 153.441V154.494C259.611 154.941 258.798 155.164 257.786 155.164C256.797 155.164 256.02 154.847 255.455 154.214C254.89 153.576 254.607 152.68 254.607 151.527C254.607 150.438 254.915 149.552 255.53 148.868C256.15 148.18 256.918 147.836 257.834 147.836C258.75 147.836 259.459 148.132 259.96 148.725C260.461 149.317 260.712 150.14 260.712 151.192V151.78ZM259.563 150.83C259.559 150.183 259.402 149.679 259.092 149.319C258.786 148.959 258.36 148.779 257.813 148.779C257.285 148.779 256.836 148.968 256.467 149.347C256.098 149.725 255.87 150.219 255.783 150.83H259.563ZM268.389 155H267.268V153.811H267.24C266.721 154.713 265.919 155.164 264.834 155.164C263.954 155.164 263.25 154.852 262.722 154.228C262.198 153.599 261.936 152.744 261.936 151.664C261.936 150.507 262.227 149.579 262.811 148.882C263.394 148.185 264.171 147.836 265.142 147.836C266.103 147.836 266.803 148.214 267.24 148.971H267.268V144.637H268.389V155ZM267.268 151.835V150.803C267.268 150.238 267.081 149.759 266.707 149.367C266.333 148.975 265.859 148.779 265.285 148.779C264.602 148.779 264.064 149.03 263.672 149.531C263.28 150.033 263.084 150.725 263.084 151.609C263.084 152.416 263.271 153.054 263.645 153.523C264.023 153.988 264.529 154.221 265.162 154.221C265.786 154.221 266.292 153.995 266.68 153.544C267.072 153.093 267.268 152.523 267.268 151.835ZM277.747 154.932C277.483 155.077 277.134 155.15 276.701 155.15C275.475 155.15 274.862 154.467 274.862 153.1V148.957H273.659V148H274.862V146.291L275.983 145.929V148H277.747V148.957H275.983V152.901C275.983 153.371 276.063 153.706 276.223 153.906C276.382 154.107 276.646 154.207 277.016 154.207C277.298 154.207 277.542 154.13 277.747 153.975V154.932ZM284.87 151.78H279.928C279.946 152.56 280.156 153.161 280.557 153.585C280.958 154.009 281.509 154.221 282.211 154.221C282.999 154.221 283.724 153.961 284.385 153.441V154.494C283.77 154.941 282.956 155.164 281.944 155.164C280.955 155.164 280.178 154.847 279.613 154.214C279.048 153.576 278.766 152.68 278.766 151.527C278.766 150.438 279.073 149.552 279.688 148.868C280.308 148.18 281.076 147.836 281.992 147.836C282.908 147.836 283.617 148.132 284.118 148.725C284.619 149.317 284.87 150.14 284.87 151.192V151.78ZM283.722 150.83C283.717 150.183 283.56 149.679 283.25 149.319C282.945 148.959 282.519 148.779 281.972 148.779C281.443 148.779 280.994 148.968 280.625 149.347C280.256 149.725 280.028 150.219 279.941 150.83H283.722ZM291.686 148L289.334 151.541L291.645 155H290.339L288.965 152.73C288.878 152.589 288.776 152.411 288.657 152.197H288.63C288.607 152.238 288.5 152.416 288.309 152.73L286.907 155H285.615L288.001 151.568L285.718 148H287.023L288.377 150.393C288.477 150.57 288.575 150.753 288.671 150.939H288.698L290.448 148H291.686ZM296.245 154.932C295.981 155.077 295.632 155.15 295.199 155.15C293.973 155.15 293.36 154.467 293.36 153.1V148.957H292.157V148H293.36V146.291L294.481 145.929V148H296.245V148.957H294.481V152.901C294.481 153.371 294.561 153.706 294.721 153.906C294.88 154.107 295.145 154.207 295.514 154.207C295.796 154.207 296.04 154.13 296.245 153.975V154.932Z" fill="#292929"/>
</g>
</g>
</g>
</g>
</g>
<g id="Button">
<path d="M404.5 138C404.5 136.067 406.067 134.5 408 134.5H432C433.933 134.5 435.5 136.067 435.5 138V162C435.5 163.933 433.933 165.5 432 165.5H408C406.067 165.5 404.5 163.933 404.5 162V138Z" stroke="#D1D1D1"/>
<g id="Icon">
<path id="Shape" d="M413.374 150.168C413.19 149.961 412.874 149.943 412.668 150.126C412.461 150.31 412.443 150.626 412.626 150.832L416.626 155.332C416.817 155.547 417.15 155.557 417.354 155.354L427.854 144.854C428.049 144.658 428.049 144.342 427.854 144.146C427.658 143.951 427.342 143.951 427.146 144.146L417.021 154.271L413.374 150.168Z" fill="#242424"/>
</g>
</g>
<g id="Button_2">
<path d="M440.5 138C440.5 136.067 442.067 134.5 444 134.5H468C469.933 134.5 471.5 136.067 471.5 138V162C471.5 163.933 469.933 165.5 468 165.5H444C442.067 165.5 440.5 163.933 440.5 162V138Z" stroke="#D1D1D1"/>
<g id="Icon_2">
<path id="Shape_2" d="M450.089 144.216L450.146 144.146C450.32 143.973 450.589 143.954 450.784 144.089L450.854 144.146L456 149.293L461.146 144.146C461.32 143.973 461.589 143.954 461.784 144.089L461.854 144.146C462.027 144.32 462.046 144.589 461.911 144.784L461.854 144.854L456.707 150L461.854 155.146C462.027 155.32 462.046 155.589 461.911 155.784L461.854 155.854C461.68 156.027 461.411 156.046 461.216 155.911L461.146 155.854L456 150.707L450.854 155.854C450.68 156.027 450.411 156.046 450.216 155.911L450.146 155.854C449.973 155.68 449.954 155.411 450.089 155.216L450.146 155.146L455.293 150L450.146 144.854C449.973 144.68 449.954 144.411 450.089 144.216L450.146 144.146L450.089 144.216Z" fill="#242424"/>
</g>
</g>
</g>
</g>
</g>
</g>
<defs>
<linearGradient id="paint0_linear_246_10876" x1="210" y1="150" x2="400" y2="150" gradientUnits="userSpaceOnUse">
<stop stop-color="#47CFFA"/>
<stop offset="1" stop-color="#B47CF8"/>
</linearGradient>
<linearGradient id="paint1_linear_246_10876" x1="210" y1="150" x2="400" y2="150" gradientUnits="userSpaceOnUse">
<stop offset="0.35" stop-color="#335CCC"/>
<stop offset="0.7" stop-color="#47CFFA"/>
<stop offset="0.92" stop-color="#B47CF8"/>
</linearGradient>
<clipPath id="clip0_246_10876">
<path d="M210 138C210 135.791 211.791 134 214 134H396C398.209 134 400 135.791 400 138V162C400 164.209 398.209 166 396 166H214C211.791 166 210 164.209 210 162V138Z" fill="white"/>
</clipPath>
</defs>
</svg>
