<svg width="500" height="300" viewBox="0 0 500 300" fill="none" xmlns="http://www.w3.org/2000/svg">
<g id="07-D-light">
<rect width="500" height="300" rx="30" fill="white"/>
<g id="Field-horz">
<g id="Label + Icon">
<g id="Label">
<text id="Text" fill="#242424" xml:space="preserve" style="white-space: pre" font-family="Segoe UI" font-size="14" letter-spacing="0em"><tspan x="28" y="154.797">Label</tspan></text>
</g>
</g>
<g id="Form + Text">
<g id="Input">
<g clip-path="url(#clip0_173_4029)">
<g id="Contents">
<rect x="210.5" y="134.5" width="261" height="31" rx="3.5" fill="white"/>
<rect x="210.5" y="134.5" width="261" height="31" rx="3.5" stroke="#C50F1F"/>
<g id="Icon-Text-stack">
<g id="Text_2">
<text id="Entered text" fill="#242424" xml:space="preserve" style="white-space: pre" font-family="Segoe UI" font-size="14" letter-spacing="0em"><tspan x="222" y="154.797">Entered text</tspan></text>
</g>
</g>
<g id="Icon End">
<g id="Icon End 1 medium">
<path id="Shape" d="M457.853 147.646C458.048 147.841 458.049 148.157 457.854 148.353L452.389 153.837C452.174 154.053 451.825 154.053 451.61 153.837L446.145 148.353C445.95 148.157 445.95 147.841 446.146 147.646C446.342 147.451 446.658 147.451 446.853 147.647L451.999 152.812L457.146 147.647C457.341 147.451 457.657 147.451 457.853 147.646Z" fill="#616161"/>
</g>
</g>
</g>
</g>
</g>
</g>
</g>
</g>
<defs>
<clipPath id="clip0_173_4029">
<path d="M210 138C210 135.791 211.791 134 214 134H468C470.209 134 472 135.791 472 138V162C472 164.209 470.209 166 468 166H214C211.791 166 210 164.209 210 162V138Z" fill="white"/>
</clipPath>
</defs>
</svg>
