<svg width="500" height="300" viewBox="0 0 500 300" fill="none" xmlns="http://www.w3.org/2000/svg">
<g id="03-D-dark">
<rect width="500" height="300" rx="30" fill="#292929"/>
<g id="Field-horz">
<g id="Form + Text">
<g id="Input">
<g clip-path="url(#clip0_287_136853)">
<g id="Contents">
<rect x="28.5" y="134.5" width="443" height="31" rx="3.5" fill="#141414"/>
<rect x="28.5" y="134.5" width="443" height="31" rx="3.5" stroke="#DC626D"/>
<g id="Icon End">
<g id="Icon End 1 medium">
<path id="Shape" d="M457.854 147.646C458.049 147.841 458.05 148.157 457.855 148.353L452.39 153.837C452.175 154.053 451.826 154.053 451.611 153.837L446.146 148.353C445.951 148.157 445.951 147.841 446.147 147.646C446.343 147.451 446.659 147.451 446.854 147.647L452 152.812L457.147 147.647C457.342 147.451 457.658 147.451 457.854 147.646Z" fill="#ADADAD"/>
</g>
</g>
</g>
</g>
</g>
</g>
</g>
</g>
<defs>
<clipPath id="clip0_287_136853">
<path d="M28 138C28 135.791 29.7909 134 32 134H468C470.209 134 472 135.791 472 138V162C472 164.209 470.209 166 468 166H32C29.7909 166 28 164.209 28 162V138Z" fill="white"/>
</clipPath>
</defs>
</svg>
