<svg width="500" height="300" viewBox="0 0 500 300" fill="none" xmlns="http://www.w3.org/2000/svg">
<g id="04-A-dark">
<rect width="500" height="300" rx="30" fill="#292929"/>
<g id="Field-horz">
<g id="Form + Text">
<g id="Input">
<g clip-path="url(#clip0_287_136856)">
<g id="Contents">
<rect x="28" y="134" width="444" height="32" rx="4" fill="#141414"/>
<g id="Icon-Text-stack">
<g id="Text">
<path id="Placeholder text" d="M42.4336 151.295V155H41.2852V145.197H43.9785C45.0267 145.197 45.8379 145.452 46.4121 145.963C46.9909 146.473 47.2803 147.193 47.2803 148.123C47.2803 149.053 46.959 149.814 46.3164 150.406C45.6784 150.999 44.8148 151.295 43.7256 151.295H42.4336ZM42.4336 146.236V150.256H43.6367C44.4297 150.256 45.0335 150.076 45.4482 149.716C45.8675 149.351 46.0771 148.839 46.0771 148.178C46.0771 146.883 45.3115 146.236 43.7803 146.236H42.4336ZM50.1035 155H48.9824V144.637H50.1035V155ZM57.3838 155H56.2627V153.906H56.2354C55.7477 154.745 55.0299 155.164 54.082 155.164C53.3848 155.164 52.8379 154.979 52.4414 154.61C52.0495 154.241 51.8535 153.751 51.8535 153.141C51.8535 151.833 52.6237 151.072 54.1641 150.857L56.2627 150.563C56.2627 149.374 55.7819 148.779 54.8203 148.779C53.9772 148.779 53.2161 149.066 52.5371 149.641V148.492C53.2253 148.055 54.0182 147.836 54.916 147.836C56.5612 147.836 57.3838 148.706 57.3838 150.447V155ZM56.2627 151.459L54.5742 151.691C54.0547 151.764 53.6628 151.894 53.3984 152.081C53.1341 152.263 53.002 152.589 53.002 153.059C53.002 153.4 53.1227 153.681 53.3643 153.899C53.6104 154.114 53.9362 154.221 54.3418 154.221C54.8978 154.221 55.3558 154.027 55.7158 153.64C56.0804 153.248 56.2627 152.753 56.2627 152.156V151.459ZM64.2676 154.679C63.7298 155.002 63.0918 155.164 62.3535 155.164C61.3555 155.164 60.5488 154.84 59.9336 154.193C59.3229 153.542 59.0176 152.699 59.0176 151.664C59.0176 150.511 59.348 149.586 60.0088 148.889C60.6696 148.187 61.5514 147.836 62.6543 147.836C63.2695 147.836 63.8118 147.95 64.2812 148.178V149.326C63.7617 148.962 63.2057 148.779 62.6133 148.779C61.8978 148.779 61.3099 149.037 60.8496 149.552C60.3939 150.062 60.166 150.734 60.166 151.568C60.166 152.389 60.3802 153.036 60.8086 153.51C61.2415 153.984 61.8203 154.221 62.5449 154.221C63.1556 154.221 63.7298 154.018 64.2676 153.612V154.679ZM71.5889 151.78H66.6465C66.6647 152.56 66.8743 153.161 67.2754 153.585C67.6764 154.009 68.2279 154.221 68.9297 154.221C69.7181 154.221 70.4427 153.961 71.1035 153.441V154.494C70.4883 154.941 69.6748 155.164 68.6631 155.164C67.6742 155.164 66.8971 154.847 66.332 154.214C65.7669 153.576 65.4844 152.68 65.4844 151.527C65.4844 150.438 65.792 149.552 66.4072 148.868C67.027 148.18 67.7949 147.836 68.7109 147.836C69.627 147.836 70.3356 148.132 70.8369 148.725C71.3382 149.317 71.5889 150.14 71.5889 151.192V151.78ZM70.4404 150.83C70.4359 150.183 70.2786 149.679 69.9688 149.319C69.6634 148.959 69.2373 148.779 68.6904 148.779C68.1618 148.779 67.7129 148.968 67.3438 149.347C66.9746 149.725 66.7467 150.219 66.6602 150.83H70.4404ZM79.1016 155H77.9805V150.967C77.9805 149.508 77.4382 148.779 76.3535 148.779C75.8066 148.779 75.3464 148.991 74.9727 149.415C74.599 149.834 74.4121 150.374 74.4121 151.035V155H73.291V144.637H74.4121V149.162H74.4395C74.9772 148.278 75.7428 147.836 76.7363 147.836C78.3132 147.836 79.1016 148.786 79.1016 150.687V155ZM84.1465 155.164C83.112 155.164 82.2848 154.838 81.665 154.187C81.0498 153.53 80.7422 152.662 80.7422 151.582C80.7422 150.406 81.0635 149.488 81.7061 148.827C82.3486 148.166 83.2168 147.836 84.3105 147.836C85.3542 147.836 86.1676 148.157 86.751 148.8C87.3389 149.442 87.6328 150.333 87.6328 151.473C87.6328 152.589 87.3161 153.485 86.6826 154.159C86.0537 154.829 85.2083 155.164 84.1465 155.164ZM84.2285 148.779C83.5085 148.779 82.9388 149.025 82.5195 149.518C82.1003 150.005 81.8906 150.68 81.8906 151.541C81.8906 152.37 82.1025 153.024 82.5264 153.503C82.9502 153.981 83.5176 154.221 84.2285 154.221C84.9531 154.221 85.5091 153.986 85.8965 153.517C86.2884 153.047 86.4844 152.38 86.4844 151.514C86.4844 150.639 86.2884 149.964 85.8965 149.49C85.5091 149.016 84.9531 148.779 84.2285 148.779ZM90.5449 155H89.4238V144.637H90.5449V155ZM98.7891 155H97.668V153.811H97.6406C97.1211 154.713 96.319 155.164 95.2344 155.164C94.3548 155.164 93.6507 154.852 93.1221 154.228C92.598 153.599 92.3359 152.744 92.3359 151.664C92.3359 150.507 92.6276 149.579 93.2109 148.882C93.7943 148.185 94.5713 147.836 95.542 147.836C96.5036 147.836 97.2031 148.214 97.6406 148.971H97.668V144.637H98.7891V155ZM97.668 151.835V150.803C97.668 150.238 97.4811 149.759 97.1074 149.367C96.7337 148.975 96.2598 148.779 95.6855 148.779C95.002 148.779 94.4642 149.03 94.0723 149.531C93.6803 150.033 93.4844 150.725 93.4844 151.609C93.4844 152.416 93.6712 153.054 94.0449 153.523C94.4232 153.988 94.929 154.221 95.5625 154.221C96.1868 154.221 96.6927 153.995 97.0801 153.544C97.472 153.093 97.668 152.523 97.668 151.835ZM106.685 151.78H101.742C101.76 152.56 101.97 153.161 102.371 153.585C102.772 154.009 103.324 154.221 104.025 154.221C104.814 154.221 105.538 153.961 106.199 153.441V154.494C105.584 154.941 104.771 155.164 103.759 155.164C102.77 155.164 101.993 154.847 101.428 154.214C100.863 153.576 100.58 152.68 100.58 151.527C100.58 150.438 100.888 149.552 101.503 148.868C102.123 148.18 102.891 147.836 103.807 147.836C104.723 147.836 105.431 148.132 105.933 148.725C106.434 149.317 106.685 150.14 106.685 151.192V151.78ZM105.536 150.83C105.532 150.183 105.374 149.679 105.064 149.319C104.759 148.959 104.333 148.779 103.786 148.779C103.257 148.779 102.809 148.968 102.439 149.347C102.07 149.725 101.842 150.219 101.756 150.83H105.536ZM112.037 149.135C111.841 148.984 111.559 148.909 111.189 148.909C110.711 148.909 110.31 149.135 109.986 149.586C109.667 150.037 109.508 150.652 109.508 151.432V155H108.387V148H109.508V149.442H109.535C109.695 148.95 109.938 148.567 110.267 148.294C110.595 148.016 110.962 147.877 111.367 147.877C111.659 147.877 111.882 147.909 112.037 147.973V149.135ZM120.343 154.932C120.078 155.077 119.73 155.15 119.297 155.15C118.071 155.15 117.458 154.467 117.458 153.1V148.957H116.255V148H117.458V146.291L118.579 145.929V148H120.343V148.957H118.579V152.901C118.579 153.371 118.659 153.706 118.818 153.906C118.978 154.107 119.242 154.207 119.611 154.207C119.894 154.207 120.138 154.13 120.343 153.975V154.932ZM127.466 151.78H122.523C122.542 152.56 122.751 153.161 123.152 153.585C123.553 154.009 124.105 154.221 124.807 154.221C125.595 154.221 126.32 153.961 126.98 153.441V154.494C126.365 154.941 125.552 155.164 124.54 155.164C123.551 155.164 122.774 154.847 122.209 154.214C121.644 153.576 121.361 152.68 121.361 151.527C121.361 150.438 121.669 149.552 122.284 148.868C122.904 148.18 123.672 147.836 124.588 147.836C125.504 147.836 126.213 148.132 126.714 148.725C127.215 149.317 127.466 150.14 127.466 151.192V151.78ZM126.317 150.83C126.313 150.183 126.156 149.679 125.846 149.319C125.54 148.959 125.114 148.779 124.567 148.779C124.039 148.779 123.59 148.968 123.221 149.347C122.852 149.725 122.624 150.219 122.537 150.83H126.317ZM134.281 148L131.93 151.541L134.24 155H132.935L131.561 152.73C131.474 152.589 131.371 152.411 131.253 152.197H131.226C131.203 152.238 131.096 152.416 130.904 152.73L129.503 155H128.211L130.597 151.568L128.313 148H129.619L130.973 150.393C131.073 150.57 131.171 150.753 131.267 150.939H131.294L133.044 148H134.281ZM138.841 154.932C138.576 155.077 138.228 155.15 137.795 155.15C136.569 155.15 135.956 154.467 135.956 153.1V148.957H134.753V148H135.956V146.291L137.077 145.929V148H138.841V148.957H137.077V152.901C137.077 153.371 137.157 153.706 137.316 153.906C137.476 154.107 137.74 154.207 138.109 154.207C138.392 154.207 138.636 154.13 138.841 153.975V154.932Z" fill="#999999"/>
</g>
</g>
</g>
</g>
</g>
</g>
</g>
</g>
<defs>
<clipPath id="clip0_287_136856">
<path d="M28 138C28 135.791 29.7909 134 32 134H468C470.209 134 472 135.791 472 138V162C472 164.209 470.209 166 468 166H32C29.7909 166 28 164.209 28 162V138Z" fill="white"/>
</clipPath>
</defs>
</svg>
